<svg id="Layer_1" data-name="Layer 1" xmlns="http://www.w3.org/2000/svg" viewBox="0 0 511.83 57"><defs><style>.cls-1{fill:#fff;}</style></defs><title>m_bouton_subscribe</title><path class="cls-1" d="M402.83,181.52a1.85,1.85,0,0,0-2.06-1.85h-4.7v3.7h4.7A1.82,1.82,0,0,0,402.83,181.52Z" transform="translate(-80 -156.75)"/><path class="cls-1" d="M298.83,186.67H294v4h4.86c1.4,0,2.24-.74,2.24-2A2,2,0,0,0,298.83,186.67Z" transform="translate(-80 -156.75)"/><path class="cls-1" d="M300.73,181.52a1.85,1.85,0,0,0-2.06-1.85H294v3.7h4.7A1.82,1.82,0,0,0,300.73,181.52Z" transform="translate(-80 -156.75)"/><path class="cls-1" d="M365.26,179.67h-4v4.75h4a2.39,2.39,0,1,0,0-4.75Z" transform="translate(-80 -156.75)"/><path class="cls-1" d="M400.92,186.67h-4.86v4h4.86c1.4,0,2.24-.74,2.24-2A2,2,0,0,0,400.92,186.67Z" transform="translate(-80 -156.75)"/><path class="cls-1" d="M80,156.75v57H591.83v-57ZM250.73,194.3a10.17,10.17,0,0,1-7.5-2.8l2.06-2.93a7.74,7.74,0,0,0,5.6,2.4c2.09,0,3.06-.93,3.06-2,0-3.06-10.14-.93-10.14-7.55,0-2.93,2.54-5.36,6.68-5.36a9.8,9.8,0,0,1,6.87,2.46l-2.09,2.8a7.57,7.57,0,0,0-5.12-1.93c-1.58,0-2.48.69-2.48,1.74,0,2.77,10.11.9,10.11,7.47C257.78,191.87,255.46,194.3,250.73,194.3Zm30.73-7.37c0,4.36-2.59,7.37-7.95,7.37s-7.95-3-7.95-7.37V176.37h3.8v10.46a4.13,4.13,0,1,0,8.26,0V176.37h3.83ZM299.78,194h-9.56V176.37h9.27c3.35,0,5.07,2.14,5.07,4.49a3.93,3.93,0,0,1-3,4,4.23,4.23,0,0,1,3.38,4.3C304.91,191.87,303.16,194,299.78,194Zm19.51.32a10.17,10.17,0,0,1-7.5-2.8l2.06-2.93a7.74,7.74,0,0,0,5.6,2.4c2.09,0,3.06-.93,3.06-2,0-3.06-10.14-.93-10.14-7.55,0-2.93,2.54-5.36,6.68-5.36a9.8,9.8,0,0,1,6.87,2.46l-2.09,2.8a7.57,7.57,0,0,0-5.12-1.93c-1.58,0-2.48.69-2.48,1.74,0,2.77,10.11.9,10.11,7.47C326.34,191.87,324,194.3,319.29,194.3ZM342.68,191a4.76,4.76,0,0,0,4.12-2.56L350,190a8.07,8.07,0,0,1-7.34,4.33c-5.31,0-9.4-3.7-9.4-9.11s4.09-9.11,9.4-9.11a8,8,0,0,1,7.34,4.3L346.8,182a4.76,4.76,0,0,0-4.12-2.56,5.79,5.79,0,0,0,0,11.57Zm24.82,3L364,187.72H361.3V194h-3.75V176.37h8.24c3.67,0,5.94,2.4,5.94,5.68a5.1,5.1,0,0,1-3.88,5.23l4,6.71Zm16,0H379.8V176.37h3.75Zm18.32,0h-9.56V176.37h9.27c3.35,0,5.07,2.14,5.07,4.49a3.93,3.93,0,0,1-3,4,4.23,4.23,0,0,1,3.38,4.3C407,191.87,405.25,194,401.87,194Zm25.69-14.31h-8.71v3.7h8.53v3.3h-8.53v4h8.71V194H415.1V176.37h12.46Z" transform="translate(-80 -156.75)"/><path class="cls-1" d="M365.26,184.42h-4v-4.75h4a2.39,2.39,0,1,1,0,4.75Z" transform="translate(-80 -156.75)"/></svg>