<svg id="Layer_1" data-name="Layer 1" xmlns="http://www.w3.org/2000/svg" viewBox="0 0 141 55.93"><defs><style>.cls-1{fill:#a17644;}</style></defs><title>logo_marron</title><path class="cls-1" d="M234.27,179.32c-.15,2.14-1.5,4.25-1.7,6.35s-1,2.7-3.16,2.59c-4.12-.21-2.14-6.19-1.87-8.59a3.88,3.88,0,0,0-.3-2.15,19.22,19.22,0,0,1-1-2.08c-.93-2.91.38-4.77,3.29-5,2-.16,3.1.11,3.06,2.4a3,3,0,0,0,.73,2.46,6.33,6.33,0,0,1,1,4" transform="translate(-214.5 -145.8)"/><path class="cls-1" d="M240.89,187.75c1.24-.12,3-.84,3.46-2.13.36-1-.65-1.47-1.41-1.75-1.7-.62-5.79-.28-6.8,1.55s3.74,2.42,4.74,2.32" transform="translate(-214.5 -145.8)"/><path class="cls-1" d="M240.89,163.4c1.24-.12,3-.84,3.46-2.13.36-1-.65-1.47-1.41-1.75-1.7-.62-5.79-.28-6.8,1.55s3.74,2.42,4.74,2.32" transform="translate(-214.5 -145.8)"/><path class="cls-1" d="M236.37,168.81c0-2.48,4-5.1,6.17-3.48,1.36,1,0,1.93.2,3.12a6.4,6.4,0,0,0,.75,1.69,5.64,5.64,0,0,1,.56,2.82c-.09,1-.76,1.77-1,2.72-.15.51.3.9.53,1.3.87,1.52.65,4.08-1.14,5s-3.83-.6-4.9-2.12a4.39,4.39,0,0,1-.66-3.2,13.78,13.78,0,0,0,.35-3.8c-.18-1.37-.81-2.64-.82-4" transform="translate(-214.5 -145.8)"/><path class="cls-1" d="M252.91,174.28s2.24-1.29.35-2.76-4.83,0-4.83,0a4.43,4.43,0,0,0-1.81,3.11c0,2.8.3,5.62.5,8.41.1,1.44,0,2.82.93,4a3.53,3.53,0,0,0,3.58,1.24,3,3,0,0,0,2.59-2.59c.26-2.09.73-4.39.13-6.42-.16-.53-1.94-4.68-1.42-5" transform="translate(-214.5 -145.8)"/><path class="cls-1" d="M332.19,178.53c-1.42,1.17-.21,3.88.57,5.23a10.64,10.64,0,0,0,4.35,4,2.77,2.77,0,0,0,1,.34,1.13,1.13,0,0,0,1-.37c.33-.41.74-.73.49-1.19-.45-.81-1.71-1.46-2.47-2a4.9,4.9,0,0,0,1.17-.29l1.33-.33a11.15,11.15,0,0,0,2.54-1c1.05-.59,2.21-2.29.87-3.26a8.2,8.2,0,0,0-2.23-.95,14.07,14.07,0,0,0-4.87-.9c-.42,0-.54.68-.59,1a1,1,0,0,0,.55,1.21c1.07.56,3.73.36,4.72,1a38.88,38.88,0,0,1-5.27,1.61,2.51,2.51,0,0,1-1-2.57c.14-.54.45-1.14.14-1.6a2,2,0,0,0-1.81-.32,2.21,2.21,0,0,0-.51.31" transform="translate(-214.5 -145.8)"/><path class="cls-1" d="M312.19,179.24a1.85,1.85,0,0,0-.21-.69c-.43-.74-1.56.27-1.79.84a5.51,5.51,0,0,0-.6,2.48c0,1.58,1.3,3.33,2,4.09a8.73,8.73,0,0,0,4.95,2.14,2.22,2.22,0,0,0,2.13-1.18.78.78,0,0,0-.46-1.16,19.08,19.08,0,0,0-2.27-.53,4.69,4.69,0,0,1-2.17-1.24,5.61,5.61,0,0,1-1.56-3.6c0-.33,0-.75,0-1.14" transform="translate(-214.5 -145.8)"/><path class="cls-1" d="M314.45,178.49c.06-.17,1-.48,1.18-.57a3.28,3.28,0,0,1,1.53-.35c.7.06,1.61,1.33,1.21,2-.18.28-.57.49-1.34.46s-2.14.07-2.15.07c-.52,0-.51-1.3-.42-1.57" transform="translate(-214.5 -145.8)"/><path class="cls-1" d="M315.71,182.54s-.4-.6-.21-.91,1.62-.4,2.24-.53a3.17,3.17,0,0,1,1.73.09,1.3,1.3,0,0,1,.59.69,2.76,2.76,0,0,1,.35.8c.06.32-.28.55-.63.7a6.1,6.1,0,0,1-1.85.2c-.37,0-1.13-.08-1.51-.11-.63,0-.41-.47-.72-.91" transform="translate(-214.5 -145.8)"/><path class="cls-1" d="M298,185.64c-.27-.07-.53-.11-.74-.15a3.68,3.68,0,0,1-1.35-.4c-1.77-.84-1.6-3.92-1.6-3.92,1.05,0,2.37-.13,3.42-.24a1.14,1.14,0,0,0,.72-.25,1.08,1.08,0,0,0,.23-.5,8.92,8.92,0,0,0,.2-1c.11-.77-1.08-.87-1.63-.91a15.89,15.89,0,0,0-2.57.16,58.46,58.46,0,0,1-5.89,0,1.67,1.67,0,0,0-.95.15,1.08,1.08,0,0,0-.46.79,1.21,1.21,0,0,0,.89,1.52,18.67,18.67,0,0,0,3.3.24,11.23,11.23,0,0,0,.36,3.06,5.27,5.27,0,0,0,1.45,2.66,4.9,4.9,0,0,0,2.66,1.22,3,3,0,0,0,2.79-.82.92.92,0,0,0,.17-1.06,1.71,1.71,0,0,0-1-.54" transform="translate(-214.5 -145.8)"/><path class="cls-1" d="M278.36,184.54a2.5,2.5,0,0,0-1.33-1.82,7.64,7.64,0,0,0-3.36-.52c-1.36,0-2.71-.15-4.06-.26-.8-.06-1.09,0-1.17-.22s1-.51,1.29-.58a11.41,11.41,0,0,1,3.42-.24c.58,0,1.16.1,1.73.2s1.06.28,1.6.36a1.07,1.07,0,0,0,1.23-.83,1.54,1.54,0,0,0,0-1.1.8.8,0,0,0-.47-.42,12.39,12.39,0,0,0-7.94-.33c-1.42.46-3,1.28-2.79,3,.2,1.37,1.68,1.8,2.55,1.94A23.24,23.24,0,0,0,272,184c1,0,2-.08,2.94-.09.35,0,1.41-.06,1.48.44,0,.34-1,1-1.52,1.18-1.9.64-5.42.21-5.42.21a2.7,2.7,0,0,0-.94,0,4,4,0,0,0-1.68.76.34.34,0,0,0-.13.35c.08.27.47.36,1.34.54,2.59.54,5.42,1.12,8,.08,1.18-.49,2.55-1.47,2.31-2.93" transform="translate(-214.5 -145.8)"/><path class="cls-1" d="M331.52,169.12l0-.14a20.73,20.73,0,0,1,.25-5.59c.28-1.84-1.4-1.72-2.68-1.8a17.59,17.59,0,0,0-4.41.12,2.11,2.11,0,0,0-1.36.7,2,2,0,0,0-.31.87c-.36,2.2.37,4.48,0,6.68a4.3,4.3,0,0,0-.16,1.55,2.32,2.32,0,0,0,1.88,1.65,11.38,11.38,0,0,0,2.65,0,13.16,13.16,0,0,0,2.44-.11,2.51,2.51,0,0,0,1.89-1.4,5.16,5.16,0,0,0-.14-2.56m-2.21,1.37c0,.9-.74.7-1.64.7h-.8c-.38,0-.92.19-1.26-.07a1.74,1.74,0,0,1-.38-1.35c0-.72,0-4.12,0-5.14s.74-.7,1.64-.7h.8c.9,0,1.64-.2,1.64.7a41.33,41.33,0,0,0,0,5.86" transform="translate(-214.5 -145.8)"/><path class="cls-1" d="M355.23,197.09l0-.14c-.11-.91-.64-12.18-.59-23.7.05-12.09.69-24.44.84-25.4.28-1.84-2-1.91-3.25-2-.73,0-84.22-.07-91.81-.07l-40.92,0a19.32,19.32,0,0,0-3,.11,2.5,2.5,0,0,0-1.89,1.4,7.4,7.4,0,0,0,.14,3.08l0,.14c.11.91.64,12.18.59,23.7-.05,12.09-.69,24.44-.84,25.4-.28,1.84,2,1.91,3.25,2,.73,0,84.22.07,91.81.07l40.92,0a19.39,19.39,0,0,0,3-.11,2.51,2.51,0,0,0,1.89-1.4,7.4,7.4,0,0,0-.14-3.08m-2.73,1.37c0,.9-.74.67-1.64.67H219.13c-.9,0-1.64.2-1.64-.7.07-.52.62-12.26.62-24.15,0-12.3-.56-24.78-.62-25.21,0-.9.74-.7,1.64-.7l131.73,0c.9,0,1.64-.2,1.64.7-.07.52-.62,12.26-.62,24.15,0,12.3.56,24.78.62,25.21" transform="translate(-214.5 -145.8)"/><path class="cls-1" d="M343.38,169.12l0-.14a20.73,20.73,0,0,1,.25-5.59c.28-1.84-1.4-1.72-2.68-1.8a17.59,17.59,0,0,0-4.41.12,2.11,2.11,0,0,0-1.36.7,2,2,0,0,0-.31.87c-.36,2.2.37,4.48,0,6.68a4.3,4.3,0,0,0-.16,1.55,2.32,2.32,0,0,0,1.88,1.65,11.38,11.38,0,0,0,2.65,0,13.16,13.16,0,0,0,2.44-.11,2.51,2.51,0,0,0,1.89-1.4,5.16,5.16,0,0,0-.14-2.56m-2.21,1.37c0,.9-.74.7-1.64.7h-.8c-.38,0-.92.19-1.26-.07a1.74,1.74,0,0,1-.38-1.35c0-.72,0-4.12,0-5.14s.74-.7,1.64-.7h.8c.9,0,1.64-.2,1.64.7a41.32,41.32,0,0,0,0,5.86" transform="translate(-214.5 -145.8)"/><path class="cls-1" d="M289.67,171.29a28.63,28.63,0,0,1-2.74-6.51c-.26-.94-.84-3.2-2.22-3.19a1.71,1.71,0,0,0-1.47,1.16c-1.28,3.21-1.76,5.44-3.19,8.13-.77,1.44-1.38,1,.29,2.16a1.4,1.4,0,0,0,1.52,0,.87.87,0,0,0,.36-.4c0-.08.23-.5.34-.53.27-.06,4.38,0,4.38,0s.57,1.45,1.65,1.14c.63-.19,1.27-.48,1.31-1.15a1.46,1.46,0,0,0-.23-.86m-5-1.21H283l1.66-4.89,1.66,4.89Z" transform="translate(-214.5 -145.8)"/><path class="cls-1" d="M278.65,167.32a1.56,1.56,0,0,0-.34-.48,2.35,2.35,0,0,0-1-.52,9.73,9.73,0,0,0-2.2-.19c.26-.47.62-.92.85-1.41a1.65,1.65,0,0,0,0-1.54,1.84,1.84,0,0,0-.81-.64,8.74,8.74,0,0,0-2.64-.69,27.35,27.35,0,0,0-3.92-.23c-.7,0-1.52.11-1.86.71a2.11,2.11,0,0,0-.18,1.07q0,2.59,0,5.17,0,1.29,0,2.58c0,.55-.24,1.73.41,2a1.18,1.18,0,0,0,.71,0,1.82,1.82,0,0,0,1.34-1,3.1,3.1,0,0,0,.08-1.58,12.74,12.74,0,0,1-.07-1.45,1.14,1.14,0,0,1,.23-.81,1.19,1.19,0,0,1,.86-.23h4a.59.59,0,0,1,.48.14c.17.21,0,.51-.21.69a10.94,10.94,0,0,1-2.62,1.48,3.33,3.33,0,0,0-2,2.16.23.23,0,0,0,.19.34,4.88,4.88,0,0,0,3.08-.6l2.67-1.17a9.21,9.21,0,0,0,1.77-.94,3.09,3.09,0,0,0,1.19-1.57,2,2,0,0,0-.09-1.38m-6-1.89c-.39.71-3.46.76-3.54.7a8.29,8.29,0,0,1-.1-2c1.07,0,1.64,0,2.71,0,.29,0,1-.06,1.19.26s-.11.77-.25,1" transform="translate(-214.5 -145.8)"/><path class="cls-1" d="M320.44,167.32a1.56,1.56,0,0,0-.34-.48,2.35,2.35,0,0,0-1-.52,9.73,9.73,0,0,0-2.2-.19c.26-.47.62-.92.85-1.41a1.65,1.65,0,0,0,0-1.54,1.84,1.84,0,0,0-.81-.64,8.74,8.74,0,0,0-2.64-.69,27.35,27.35,0,0,0-3.92-.23c-.7,0-1.52.11-1.86.71a2.11,2.11,0,0,0-.18,1.07q0,2.59,0,5.17,0,1.29,0,2.58c0,.55-.24,1.73.41,2a1.18,1.18,0,0,0,.71,0,1.82,1.82,0,0,0,1.34-1,3.1,3.1,0,0,0,.08-1.58,12.74,12.74,0,0,1-.07-1.45,1.13,1.13,0,0,1,.23-.81,1.19,1.19,0,0,1,.86-.23h4a.59.59,0,0,1,.48.14c.17.21,0,.51-.21.69a10.94,10.94,0,0,1-2.62,1.48,3.33,3.33,0,0,0-2,2.16.23.23,0,0,0,.19.34,4.88,4.88,0,0,0,3.08-.6l2.67-1.17a9.21,9.21,0,0,0,1.77-.94,3.09,3.09,0,0,0,1.19-1.57,2,2,0,0,0-.09-1.38m-6-1.89c-.39.71-3.46.76-3.54.7a8.29,8.29,0,0,1-.1-2c1.07,0,1.64,0,2.71,0,.29,0,1-.06,1.19.26s-.11.77-.25,1" transform="translate(-214.5 -145.8)"/><path class="cls-1" d="M295,166.67l2.63,5.14a1.4,1.4,0,0,0,.55.67.94.94,0,0,0,1-.21,2.77,2.77,0,0,0,.59-.91l2.08-4.35,1.34,5.65a1.11,1.11,0,0,0,.34.68,1,1,0,0,0,.83.07,1.68,1.68,0,0,0,1.19-.69,1.62,1.62,0,0,0,.13-.92c-.08-.89-1-3.66-1.1-4.2-.23-1-.32-2.07-.45-3.1a4,4,0,0,0-.89-2.65.74.74,0,0,0-.39-.2c-1-.13-1.68,1.87-2,2.55a27.8,27.8,0,0,0-1.18,2.67c-.17.44-.33.88-.49,1.33-.08.23-.55,1.12-.46,1.33a43.69,43.69,0,0,0-3.13-6.62,2.23,2.23,0,0,0-1.39-1.19c-.64-.1-1,.56-1.12,1.12s-.21,3.29-.38,4.54c-.28,2.14-1.18,4.63-1.15,5.37a.71.71,0,0,0,.14.47.67.67,0,0,0,.39.17,2.73,2.73,0,0,0,1.66-.25,1.31,1.31,0,0,0,.53-.44,1.73,1.73,0,0,0,.18-.93c0-1.7.55-3.41.57-5.1" transform="translate(-214.5 -145.8)"/></svg>