<svg id="Layer_1" data-name="Layer 1" xmlns="http://www.w3.org/2000/svg" viewBox="0 0 43.35 66.9"><defs><style>.cls-1{fill:#fff;}</style></defs><title>picto_strategy</title><path class="cls-1" d="M175,207h0a11.47,11.47,0,0,0,9.31-4.14h-18.6A11.46,11.46,0,0,0,175,207Z" transform="translate(-153.33 -140.08)"/><path class="cls-1" d="M163,194.65c0,.44,0,.87.07,1.29h23.83q.06-.64.06-1.29c0-.07,0-.8,0-1.9H163C163,193.85,163,194.58,163,194.65Z" transform="translate(-153.33 -140.08)"/><path class="cls-1" d="M167.6,197.75h-4.28a10.37,10.37,0,0,0,1.23,3l.17.27h20.58a10.51,10.51,0,0,0,1.39-3.28H167.6Z" transform="translate(-153.33 -140.08)"/><path class="cls-1" d="M175,140.08h0c-11.76,0-22.37,9.9-21.64,21.64.6,9.66,6.24,15,7.95,19.65a27.73,27.73,0,0,1,1.71,8.71s0,.38,0,.86h24c0-.48,0-.82,0-.86a27.76,27.76,0,0,1,1.71-8.71c1.71-4.61,7.34-10,7.95-19.65C197.38,150,186.77,140.08,175,140.08Zm-1.26,36.18a52.38,52.38,0,0,0-.86-8.24h3.88a52.47,52.47,0,0,0-.86,8.24,107.16,107.16,0,0,0,.19,10.72h-2.56A107.07,107.07,0,0,0,173.75,176.26Zm18.77-14.8c-.35,5.63-2.76,9.6-4.88,13.12a32.49,32.49,0,0,0-2.82,5.36,33.18,33.18,0,0,0-1.73,7h-4.91c-.32-4.27-.56-13.1.7-19,1.14,0,2.33-.1,3.31-.2a3.86,3.86,0,0,0,3.59-3,4.08,4.08,0,0,0-1.66-4.32c-.59-.36-2.19-1-4.18.65a9.68,9.68,0,0,0-2.65,4.81h-4.89a9.68,9.68,0,0,0-2.65-4.81c-2-1.67-3.59-1-4.18-.65a4.08,4.08,0,0,0-1.66,4.32,3.86,3.86,0,0,0,3.59,3c1,.1,2.17.16,3.31.2,1.26,5.9,1,14.73.7,19h-4.56a33.17,33.17,0,0,0-1.73-7,32.45,32.45,0,0,0-2.82-5.36c-2.12-3.51-4.53-7.49-4.88-13.12A15.31,15.31,0,0,1,161.86,150a17.83,17.83,0,0,1,26.29,0A15.31,15.31,0,0,1,192.52,161.46Zm-13.09,4.42a7,7,0,0,1,1.83-3.17,2.22,2.22,0,0,1,1.3-.61.91.91,0,0,1,.48.13,2.05,2.05,0,0,1,.72,2.1,1.81,1.81,0,0,1-1.78,1.38C181.22,165.79,180.33,165.84,179.43,165.88Zm-9.2,0c-.9,0-1.79-.09-2.54-.17a1.81,1.81,0,0,1-1.78-1.38,2.05,2.05,0,0,1,.72-2.1.91.91,0,0,1,.48-.13,2.22,2.22,0,0,1,1.3.61A7,7,0,0,1,170.23,165.88Z" transform="translate(-153.33 -140.08)"/></svg>