<svg id="Layer_1" data-name="Layer 1" xmlns="http://www.w3.org/2000/svg" viewBox="0 0 82.41 82.41"><defs><style>.cls-1{fill:#fff;}</style></defs><title>picto_twitter</title><path class="cls-1" d="M243.85,131.94v82.41h82.41V131.94Zm57.59,32.8c0,.36,0,.73,0,1.09,0,11.17-8.5,24.05-24.05,24.05a23.94,23.94,0,0,1-13-3.8,17.84,17.84,0,0,0,2,.12,17,17,0,0,0,10.5-3.62,8.46,8.46,0,0,1-7.89-5.87,8.39,8.39,0,0,0,3.81-.14,8.46,8.46,0,0,1-6.78-8.29v-.11a8.41,8.41,0,0,0,3.83,1.06,8.46,8.46,0,0,1-2.62-11.29,24,24,0,0,0,17.42,8.83,8.46,8.46,0,0,1,14.4-7.71,16.93,16.93,0,0,0,5.37-2.05,8.48,8.48,0,0,1-3.72,4.68,16.84,16.84,0,0,0,4.85-1.33A17.14,17.14,0,0,1,301.43,164.74Z" transform="translate(-243.85 -131.94)"/></svg>