<svg id="Layer_1" data-name="Layer 1" xmlns="http://www.w3.org/2000/svg" viewBox="0 0 62.87 63.47"><defs><style>.cls-1{fill:#fff;}</style></defs><title>picto_purpose</title><path class="cls-1" d="M168.46,169.51a10.25,10.25,0,1,1,10.25,10.25l-.32,0-1.6,3.87a14.26,14.26,0,1,0-12.06-11.38l3.8-1.57A10.36,10.36,0,0,1,168.46,169.51Z" transform="translate(-143.33 -142.01)"/><path class="cls-1" d="M178.71,142a27.49,27.49,0,0,0-26.36,35.33l3.72-1.54a23.52,23.52,0,1,1,17.11,16.54l-1.54,3.74A27.5,27.5,0,1,0,178.71,142Z" transform="translate(-143.33 -142.01)"/><path class="cls-1" d="M176.58,172.24a.87.87,0,0,0-.93-.19l-5.9,2.44L166,176l-8.58,3.54-3.7,1.53-7.37,3a.86.86,0,0,0,.08,1.62l9.56,2.82L143.58,201a.86.86,0,0,0,0,1.21h0l3,3a.89.89,0,0,0,1.22,0l12.46-12.46,2.82,9.56a.86.86,0,0,0,.78.62.87.87,0,0,0,.84-.53l3.15-7.64,1.53-3.7,3.53-8.56,1.53-3.7,2.33-5.64A.85.85,0,0,0,176.58,172.24Z" transform="translate(-143.33 -142.01)"/></svg>