<svg id="Layer_1" data-name="Layer 1" xmlns="http://www.w3.org/2000/svg" viewBox="0 0 724.46 32"><defs><style>.cls-1{fill:#fff;}</style></defs><title>bouton_superjoli</title><path class="cls-1" d="M442.53,185.78a2.83,2.83,0,1,0,2.48,2.8A2.54,2.54,0,0,0,442.53,185.78Z" transform="translate(-39.77 -170.64)"/><path class="cls-1" d="M373.36,185.78a2.84,2.84,0,0,0,0,5.62,2.75,2.75,0,0,0,2.18-1.1v-3.42A2.75,2.75,0,0,0,373.36,185.78Z" transform="translate(-39.77 -170.64)"/><path class="cls-1" d="M418.32,185.6a2.23,2.23,0,0,0-2.36,2.06h4.76A2.21,2.21,0,0,0,418.32,185.6Z" transform="translate(-39.77 -170.64)"/><path class="cls-1" d="M389,185.6a2.23,2.23,0,0,0-2.36,2.06h4.76A2.21,2.21,0,0,0,389,185.6Z" transform="translate(-39.77 -170.64)"/><path class="cls-1" d="M494.65,185.6a2.23,2.23,0,0,0-2.36,2.06h4.76A2.21,2.21,0,0,0,494.65,185.6Z" transform="translate(-39.77 -170.64)"/><path class="cls-1" d="M458.27,185.78a2.82,2.82,0,0,0-2.18,1.1v3.4a2.86,2.86,0,0,0,2.18,1.12,2.84,2.84,0,0,0,0-5.62Z" transform="translate(-39.77 -170.64)"/><path class="cls-1" d="M175,185.78a2.83,2.83,0,1,0,2.48,2.8A2.54,2.54,0,0,0,175,185.78Z" transform="translate(-39.77 -170.64)"/><path class="cls-1" d="M139.72,185.78a2.82,2.82,0,0,0-2.18,1.1v3.4a2.86,2.86,0,0,0,2.18,1.12,2.84,2.84,0,0,0,0-5.62Z" transform="translate(-39.77 -170.64)"/><path class="cls-1" d="M124.32,185.6a2.23,2.23,0,0,0-2.36,2.06h4.76A2.21,2.21,0,0,0,124.32,185.6Z" transform="translate(-39.77 -170.64)"/><path class="cls-1" d="M79.36,185.78a2.83,2.83,0,1,0,2.48,2.8A2.54,2.54,0,0,0,79.36,185.78Z" transform="translate(-39.77 -170.64)"/><path class="cls-1" d="M277.64,185.78a2.67,2.67,0,0,0,0,5.32,2.88,2.88,0,0,0,2.18-1.1v-3.14A2.86,2.86,0,0,0,277.64,185.78Z" transform="translate(-39.77 -170.64)"/><path class="cls-1" d="M348.5,185.78a2.84,2.84,0,0,0,0,5.62,2.75,2.75,0,0,0,2.18-1.1v-3.42A2.75,2.75,0,0,0,348.5,185.78Z" transform="translate(-39.77 -170.64)"/><path class="cls-1" d="M315.54,190.5c0,.92.82,1.44,1.82,1.44a2.54,2.54,0,0,0,2-.84v-1.2a2.55,2.55,0,0,0-2-.86C316.36,189,315.54,189.58,315.54,190.5Z" transform="translate(-39.77 -170.64)"/><path class="cls-1" d="M239.9,185.6a2.23,2.23,0,0,0-2.36,2.06h4.76A2.21,2.21,0,0,0,239.9,185.6Z" transform="translate(-39.77 -170.64)"/><path class="cls-1" d="M224.26,185.78a2.84,2.84,0,0,0,0,5.62,2.75,2.75,0,0,0,2.18-1.1v-3.42A2.75,2.75,0,0,0,224.26,185.78Z" transform="translate(-39.77 -170.64)"/><path class="cls-1" d="M39.77,170.64v32H764.23v-32Zm23.91,20.5a3.61,3.61,0,0,0,3.12-1.94l2.44,1.18a6.11,6.11,0,0,1-5.56,3.28,6.91,6.91,0,1,1,0-13.8,6.06,6.06,0,0,1,5.56,3.26l-2.44,1.2a3.61,3.61,0,0,0-3.12-1.94,4.38,4.38,0,0,0,0,8.76Zm15.68,2.52a5.07,5.07,0,1,1,5.12-5.08A4.91,4.91,0,0,1,79.36,193.66Zm20.1-.24H96.9v-5.84a1.57,1.57,0,0,0-1.78-1.8,2.83,2.83,0,0,0-2.2,1.12v6.52H90.38v-9.66h2.54V185a4.52,4.52,0,0,1,3.38-1.48,2.82,2.82,0,0,1,3.16,3.08Zm11.12-2a2.41,2.41,0,0,0,2-1.06l1.66,1.56a4.5,4.5,0,0,1-3.82,1.76,5.07,5.07,0,1,1,0-10.14,4.49,4.49,0,0,1,3.82,1.74l-1.66,1.56a2.34,2.34,0,0,0-2-1,2.82,2.82,0,0,0,0,5.62Zm18.58-2H122a2.59,2.59,0,0,0,2.78,2.16,4,4,0,0,0,2.56-.94l1.14,1.68a6,6,0,0,1-4,1.34,5.07,5.07,0,1,1-.16-10.14c2.9,0,4.84,2.16,4.84,5.3Zm11.36,4.24a3.72,3.72,0,0,1-3-1.48v4.92H135V183.76h2.54V185a3.73,3.73,0,0,1,3-1.46c2.48,0,4.28,1.84,4.28,5.06S143,193.66,140.52,193.66Zm13.38,0a2.41,2.41,0,0,1-2.72-2.66v-5h-1.6v-2.22h1.6v-2.64h2.54v2.64h2V186h-2v4.34c0,.62.32,1.08.88,1.08a1.28,1.28,0,0,0,.88-.3L156,193A3.14,3.14,0,0,1,153.9,193.66Zm10.06-.24h-2.54v-9.66H164Zm-1.28-10.7a1.51,1.51,0,0,1-1.5-1.52,1.51,1.51,0,0,1,3,0A1.52,1.52,0,0,1,162.68,182.72ZM175,193.66a5.07,5.07,0,1,1,5.12-5.08A4.91,4.91,0,0,1,175,193.66Zm20.1-.24H192.5v-5.84a1.57,1.57,0,0,0-1.78-1.8,2.83,2.83,0,0,0-2.2,1.12v6.52H186v-9.66h2.54V185a4.52,4.52,0,0,1,3.38-1.48,2.82,2.82,0,0,1,3.16,3.08Zm7.48,2.74-1.1-.9a3.4,3.4,0,0,0,1.54-1.88,1.34,1.34,0,0,1-1.74-1.38,1.6,1.6,0,0,1,1.58-1.6,1.85,1.85,0,0,1,1.78,2A4.61,4.61,0,0,1,202.54,196.16ZM229,193.42h-2.56v-1.24a3.72,3.72,0,0,1-3,1.48c-2.42,0-4.28-1.84-4.28-5.08s1.82-5.06,4.28-5.06a3.66,3.66,0,0,1,3,1.48v-4.92H229Zm15.74-4h-7.18a2.59,2.59,0,0,0,2.78,2.16,4,4,0,0,0,2.56-.94l1.14,1.68a6,6,0,0,1-4,1.34,5.07,5.07,0,1,1-.16-10.14c2.9,0,4.84,2.16,4.84,5.3Zm9.32,4.24a6.5,6.5,0,0,1-4.32-1.5l1.1-1.84a5.48,5.48,0,0,0,3.34,1.34c1.1,0,1.62-.42,1.62-1,0-1.58-5.72-.28-5.72-4.08,0-1.62,1.4-3,4-3a6.16,6.16,0,0,1,3.88,1.32l-1,1.8a4.16,4.16,0,0,0-2.86-1.12c-.92,0-1.52.4-1.52.94,0,1.42,5.74.22,5.74,4.12C258.26,192.36,256.74,193.66,254.06,193.66Zm12.6-.24h-2.54v-9.66h2.54Zm-1.28-10.7a1.51,1.51,0,0,1-1.5-1.52,1.51,1.51,0,0,1,3,0A1.52,1.52,0,0,1,265.38,182.72Zm17,10.06c0,3.66-2.84,4.56-5.22,4.56A5.89,5.89,0,0,1,273,195.9l1.14-1.82a3.92,3.92,0,0,0,3,1.18,2.38,2.38,0,0,0,2.68-2.48v-.94a3.75,3.75,0,0,1-3,1.5c-2.4,0-4.26-1.68-4.26-4.9s1.82-4.92,4.26-4.92a3.7,3.7,0,0,1,3,1.48v-1.24h2.54Zm15.6.64H295.4v-5.84a1.57,1.57,0,0,0-1.78-1.8,2.83,2.83,0,0,0-2.2,1.12v6.52h-2.54v-9.66h2.54V185a4.52,4.52,0,0,1,3.38-1.48A2.82,2.82,0,0,1,298,186.6Zm24,0H319.4v-1a3.94,3.94,0,0,1-3.06,1.26,3.2,3.2,0,0,1-3.34-3.2,3.06,3.06,0,0,1,3.34-3.12,4,4,0,0,1,3.06,1.18V187.3c0-1-.84-1.62-2.12-1.62a4.06,4.06,0,0,0-2.78,1.14l-1-1.78a6.24,6.24,0,0,1,4.22-1.52c2.22,0,4.24.88,4.24,3.66Zm15.58,0H335v-5.84a1.57,1.57,0,0,0-1.78-1.8,2.83,2.83,0,0,0-2.2,1.12v6.52h-2.54v-9.66H331V185a4.52,4.52,0,0,1,3.38-1.48,2.82,2.82,0,0,1,3.16,3.08Zm15.7,0h-2.56v-1.24a3.72,3.72,0,0,1-3,1.48c-2.42,0-4.28-1.84-4.28-5.08s1.82-5.06,4.28-5.06a3.66,3.66,0,0,1,3,1.48v-4.92h2.56Zm24.86,0h-2.56v-1.24a3.72,3.72,0,0,1-3,1.48c-2.42,0-4.28-1.84-4.28-5.08s1.82-5.06,4.28-5.06a3.66,3.66,0,0,1,3,1.48v-4.92h2.56Zm15.74-4h-7.18a2.59,2.59,0,0,0,2.78,2.16,4,4,0,0,0,2.56-.94l1.14,1.68a6,6,0,0,1-4,1.34,5.07,5.07,0,1,1-.16-10.14c2.9,0,4.84,2.16,4.84,5.3Zm11.08,4h-2.74l-3.88-9.66H401l2.52,6.72,2.54-6.72h2.72Zm18.24-4H416a2.59,2.59,0,0,0,2.78,2.16,4,4,0,0,0,2.56-.94l1.14,1.68a6,6,0,0,1-4,1.34,5.07,5.07,0,1,1-.16-10.14c2.9,0,4.84,2.16,4.84,5.3Zm8.38,4H429V180.08h2.54Zm11,.24a5.07,5.07,0,1,1,5.12-5.08A4.91,4.91,0,0,1,442.53,193.66Zm16.54,0a3.72,3.72,0,0,1-3-1.48v4.92h-2.54V183.76h2.54V185a3.73,3.73,0,0,1,3-1.46c2.48,0,4.28,1.84,4.28,5.06S461.55,193.66,459.07,193.66Zm24.68-.24H481.2v-6.1c0-.9-.4-1.54-1.44-1.54a2.57,2.57,0,0,0-2,1.12v6.52h-2.56v-6.1c0-.9-.4-1.54-1.44-1.54a2.63,2.63,0,0,0-2,1.12v6.52h-2.54v-9.66h2.54V185a4.33,4.33,0,0,1,3.16-1.48,2.55,2.55,0,0,1,2.68,1.74,4.14,4.14,0,0,1,3.32-1.74,2.58,2.58,0,0,1,2.84,2.92Zm15.74-4h-7.18a2.59,2.59,0,0,0,2.78,2.16,4,4,0,0,0,2.56-.94l1.14,1.68a6,6,0,0,1-4,1.34,5.07,5.07,0,1,1-.16-10.14c2.9,0,4.84,2.16,4.84,5.3Zm14.92,4h-2.56v-5.84a1.57,1.57,0,0,0-1.78-1.8,2.83,2.83,0,0,0-2.2,1.12v6.52h-2.54v-9.66h2.54V185a4.52,4.52,0,0,1,3.38-1.48,2.82,2.82,0,0,1,3.16,3.08Zm9.74.24a2.41,2.41,0,0,1-2.72-2.66v-5h-1.6v-2.22h1.6v-2.64H524v2.64h2V186h-2v4.34c0,.62.32,1.08.88,1.08a1.28,1.28,0,0,0,.88-.3l.54,1.94A3.14,3.14,0,0,1,524.15,193.66Zm8.82,0a1.62,1.62,0,1,1,1.62-1.62A1.64,1.64,0,0,1,533,193.64Zm0-6.78a1.62,1.62,0,1,1,1.62-1.62A1.64,1.64,0,0,1,533,186.86Zm21.58,6.8a7.71,7.71,0,0,1-5.68-2.12l1.56-2.22a5.86,5.86,0,0,0,4.24,1.82c1.58,0,2.32-.7,2.32-1.48,0-2.32-7.68-.7-7.68-5.72,0-2.22,1.92-4.06,5.06-4.06a7.42,7.42,0,0,1,5.2,1.86L558,183.86a5.73,5.73,0,0,0-3.88-1.46c-1.2,0-1.88.52-1.88,1.32,0,2.1,7.66.68,7.66,5.66C559.89,191.82,558.13,193.66,554.55,193.66Zm23.28-5.58c0,3.3-2,5.58-6,5.58s-6-2.28-6-5.58v-8h2.88V188a3.13,3.13,0,1,0,6.26,0v-7.92h2.9Zm12.88.58h-3.4v4.76h-2.84V180.08h6.24a4.3,4.3,0,1,1,0,8.58Zm19.7-6.08h-6.6v2.8h6.46v2.5h-6.46v3h6.6v2.5H601V180.08h9.44Zm13.76,10.84-2.62-4.74h-2.08v4.74h-2.84V180.08h6.24a4.17,4.17,0,0,1,4.5,4.3,3.86,3.86,0,0,1-2.94,4l3,5.08ZM640.59,189c0,3.14-2,4.62-4.7,4.62a5,5,0,0,1-3.6-1.32l1.24-2.16a3,3,0,0,0,2.12,1,2,2,0,0,0,2.08-2.14v-8.92h2.86Zm13,4.62a6.9,6.9,0,1,1,7-6.9A6.7,6.7,0,0,1,653.55,193.66Zm21.34-.24h-8.5V180.08h2.86v10.84h5.64Zm8.76,0h-2.84V180.08h2.84Zm7.88.22a1.62,1.62,0,1,1,1.62-1.62A1.64,1.64,0,0,1,691.53,193.64Zm14.38-2.5A3.61,3.61,0,0,0,709,189.2l2.44,1.18a6.11,6.11,0,0,1-5.56,3.28,6.91,6.91,0,1,1,0-13.8,6.06,6.06,0,0,1,5.56,3.26l-2.44,1.2a3.61,3.61,0,0,0-3.12-1.94,4.38,4.38,0,0,0,0,8.76Zm17.6,2.52a6.9,6.9,0,1,1,7-6.9A6.7,6.7,0,0,1,723.51,193.66Zm27.42-.24h-2.86V183.8l-3.76,9.62h-1.24l-3.76-9.62v9.62h-2.84V180.08h4l3.24,8.34,3.24-8.34h4Z" transform="translate(-39.77 -170.64)"/><path class="cls-1" d="M653.55,182.38c-2.48,0-4.06,1.88-4.06,4.38s1.58,4.38,4.06,4.38,4-1.9,4-4.38S656,182.38,653.55,182.38Z" transform="translate(-39.77 -170.64)"/><path class="cls-1" d="M723.51,182.38c-2.48,0-4.06,1.88-4.06,4.38s1.58,4.38,4.06,4.38,4-1.9,4-4.38S726,182.38,723.51,182.38Z" transform="translate(-39.77 -170.64)"/><path class="cls-1" d="M622.47,182.58h-3v3.6h3a1.81,1.81,0,1,0,0-3.6Z" transform="translate(-39.77 -170.64)"/><path class="cls-1" d="M590.31,182.58h-3v3.58h3a1.8,1.8,0,1,0,0-3.58Z" transform="translate(-39.77 -170.64)"/></svg>