<svg id="Layer_1" data-name="Layer 1" xmlns="http://www.w3.org/2000/svg" viewBox="0 0 590.97 57"><defs><style>.cls-1{fill:#fff;}</style></defs><title>m_bouton_purchase</title><path class="cls-1" d="M631.54,192c-2.48,0-4.06,1.88-4.06,4.38s1.58,4.38,4.06,4.38,4-1.9,4-4.38S634,192,631.54,192Z" transform="translate(-260.51 -166.24)"/><path class="cls-1" d="M614.46,197.51h-3.68v3h3.68c1.06,0,1.7-.56,1.7-1.52A1.52,1.52,0,0,0,614.46,197.51Z" transform="translate(-260.51 -166.24)"/><polygon class="cls-1" points="172.5 32.05 176.66 32.05 174.58 26.31 172.5 32.05"/><path class="cls-1" d="M615.9,193.61a1.4,1.4,0,0,0-1.56-1.4h-3.56V195h3.56A1.38,1.38,0,0,0,615.9,193.61Z" transform="translate(-260.51 -166.24)"/><path class="cls-1" d="M531.74,192.21h-3v3.6h3a1.81,1.81,0,1,0,0-3.6Z" transform="translate(-260.51 -166.24)"/><path class="cls-1" d="M558.42,197.51h-3.68v3h3.68c1.06,0,1.7-.56,1.7-1.52A1.52,1.52,0,0,0,558.42,197.51Z" transform="translate(-260.51 -166.24)"/><path class="cls-1" d="M559.86,193.61a1.4,1.4,0,0,0-1.56-1.4h-3.56V195h3.56A1.38,1.38,0,0,0,559.86,193.61Z" transform="translate(-260.51 -166.24)"/><path class="cls-1" d="M650.84,192c-2.48,0-4.06,1.88-4.06,4.38s1.58,4.38,4.06,4.38,4-1.9,4-4.38S653.3,192,650.84,192Z" transform="translate(-260.51 -166.24)"/><polygon class="cls-1" points="312.08 32.05 316.24 32.05 314.16 26.31 312.08 32.05"/><path class="cls-1" d="M494.26,192c-2.48,0-4.06,1.88-4.06,4.38s1.58,4.38,4.06,4.38,4-1.9,4-4.38S496.72,192,494.26,192Z" transform="translate(-260.51 -166.24)"/><polygon class="cls-1" points="464.1 32.05 468.26 32.05 466.18 26.31 464.1 32.05"/><path class="cls-1" d="M382.2,192.21h-3v3.6h3a1.81,1.81,0,1,0,0-3.6Z" transform="translate(-260.51 -166.24)"/><path class="cls-1" d="M710.15,192.21h-3v3.6h3a1.81,1.81,0,1,0,0-3.6Z" transform="translate(-260.51 -166.24)"/><path class="cls-1" d="M260.51,166.24v57h591v-57Zm86.9,32H344v4.76h-2.84V189.71h6.24a4.3,4.3,0,1,1,0,8.58Zm22.3-.58c0,3.3-2,5.58-6,5.58s-6-2.28-6-5.58v-8h2.88v7.92a3.13,3.13,0,1,0,6.26,0v-7.92h2.9Zm14.18,5.34-2.62-4.74H379.2v4.74h-2.84V189.71h6.24a4.17,4.17,0,0,1,4.5,4.3,3.86,3.86,0,0,1-2.94,4l3,5.08Zm15.8-2.28a3.61,3.61,0,0,0,3.12-1.94l2.44,1.18a6.11,6.11,0,0,1-5.56,3.28,6.9,6.9,0,1,1,0-13.8,6.06,6.06,0,0,1,5.56,3.26l-2.44,1.2A3.61,3.61,0,0,0,399.7,192a4.38,4.38,0,0,0,0,8.76ZM423,203.05H420.1v-5.62h-6.3v5.62H411V189.71h2.84V195h6.3v-5.24H423Zm15.84,0-.84-2.26h-5.72l-.84,2.26h-3.22l5.14-13.34h3.56L442,203.05Zm13.08.24a7.71,7.71,0,0,1-5.68-2.12l1.56-2.22a5.86,5.86,0,0,0,4.24,1.82c1.58,0,2.32-.7,2.32-1.48,0-2.32-7.68-.7-7.68-5.72,0-2.22,1.92-4.06,5.06-4.06a7.43,7.43,0,0,1,5.2,1.86l-1.58,2.12a5.73,5.73,0,0,0-3.88-1.46c-1.2,0-1.88.52-1.88,1.32,0,2.1,7.66.68,7.66,5.66C457.22,201.45,455.46,203.29,451.88,203.29Zm20.68-11.08H466V195h6.46v2.5H466v3h6.6v2.5h-9.44V189.71h9.44Zm21.7,11.08a6.9,6.9,0,1,1,7-6.9A6.7,6.7,0,0,1,494.26,203.29Zm25-5.58c0,3.3-2,5.58-6,5.58s-6-2.28-6-5.58v-8h2.88v7.92a3.13,3.13,0,1,0,6.26,0v-7.92h2.9Zm14.18,5.34-2.62-4.74h-2.08v4.74H525.9V189.71h6.24a4.17,4.17,0,0,1,4.5,4.3,3.86,3.86,0,0,1-2.94,4l3,5.08Zm25.7,0h-7.24V189.71h7c2.54,0,3.84,1.62,3.84,3.4a3,3,0,0,1-2.3,3.06,3.21,3.21,0,0,1,2.56,3.26C563,201.45,561.7,203.05,559.14,203.05Zm19.24,0-.84-2.26h-5.72l-.84,2.26h-3.22l5.14-13.34h3.56l5.14,13.34Zm22.92,0h-2.86v-9.62l-3.76,9.62h-1.24l-3.76-9.62v9.62h-2.84V189.71h4l3.24,8.34,3.24-8.34h4Zm13.88,0h-7.24V189.71h7c2.54,0,3.84,1.62,3.84,3.4a3,3,0,0,1-2.3,3.06,3.21,3.21,0,0,1,2.56,3.26C619.06,201.45,617.74,203.05,615.18,203.05Zm16.36.24a6.9,6.9,0,1,1,7-6.9A6.7,6.7,0,0,1,631.54,203.29Zm19.3,0a6.9,6.9,0,1,1,7-6.9A6.7,6.7,0,0,1,650.84,203.29Zm26.86,0a7.71,7.71,0,0,1-5.68-2.12l1.56-2.22a5.86,5.86,0,0,0,4.24,1.82c1.58,0,2.32-.7,2.32-1.48,0-2.32-7.68-.7-7.68-5.72,0-2.22,1.92-4.06,5.06-4.06a7.43,7.43,0,0,1,5.2,1.86l-1.58,2.12a5.73,5.73,0,0,0-3.88-1.46c-1.2,0-1.88.52-1.88,1.32,0,2.1,7.66.68,7.66,5.66C683,201.45,681.27,203.29,677.69,203.29Zm20.8-11.08h-3.88v10.84h-2.86V192.21h-3.9v-2.5H698.5Zm13.36,10.84-2.62-4.74h-2.08v4.74h-2.84V189.71h6.24a4.17,4.17,0,0,1,4.5,4.3,3.86,3.86,0,0,1-2.94,4l3,5.08Zm18.54,0-.84-2.26h-5.72l-.84,2.26h-3.22l5.14-13.34h3.56l5.14,13.34Zm20.8,0h-3l-2.34-9.16-2.32,9.16h-3l-3.82-13.34h3.18l2.34,9.64,2.54-9.64H747l2.52,9.64,2.34-9.64H755Zm13.9.24a7.71,7.71,0,0,1-5.68-2.12L761,199a5.86,5.86,0,0,0,4.24,1.82c1.58,0,2.32-.7,2.32-1.48,0-2.32-7.68-.7-7.68-5.72,0-2.22,1.92-4.06,5.06-4.06a7.43,7.43,0,0,1,5.2,1.86l-1.58,2.12a5.73,5.73,0,0,0-3.88-1.46c-1.2,0-1.88.52-1.88,1.32,0,2.1,7.66.68,7.66,5.66C770.44,201.45,768.67,203.29,765.09,203.29Z" transform="translate(-260.51 -166.24)"/><path class="cls-1" d="M347,192.21h-3v3.58h3a1.8,1.8,0,1,0,0-3.58Z" transform="translate(-260.51 -166.24)"/><path class="cls-1" d="M347,195.79h-3v-3.58h3a1.8,1.8,0,1,1,0,3.58Z" transform="translate(-260.51 -166.24)"/><path class="cls-1" d="M382.2,195.81h-3v-3.6h3a1.81,1.81,0,1,1,0,3.6Z" transform="translate(-260.51 -166.24)"/><path class="cls-1" d="M433,198.29l2.08-5.74,2.08,5.74Z" transform="translate(-260.51 -166.24)"/><path class="cls-1" d="M494.26,200.77c-2.48,0-4.06-1.9-4.06-4.38s1.58-4.38,4.06-4.38,4,1.88,4,4.38S496.72,200.77,494.26,200.77Z" transform="translate(-260.51 -166.24)"/><path class="cls-1" d="M531.74,195.81h-3v-3.6h3a1.81,1.81,0,1,1,0,3.6Z" transform="translate(-260.51 -166.24)"/><path class="cls-1" d="M554.74,192.21h3.56a1.4,1.4,0,0,1,1.56,1.4,1.38,1.38,0,0,1-1.56,1.4h-3.56Zm3.68,8.34h-3.68v-3h3.68a1.52,1.52,0,0,1,1.7,1.52C560.12,200,559.48,200.55,558.42,200.55Z" transform="translate(-260.51 -166.24)"/><path class="cls-1" d="M572.6,198.29l2.08-5.74,2.08,5.74Z" transform="translate(-260.51 -166.24)"/><path class="cls-1" d="M610.77,192.21h3.56a1.4,1.4,0,0,1,1.56,1.4,1.38,1.38,0,0,1-1.56,1.4h-3.56Zm3.68,8.34h-3.68v-3h3.68a1.52,1.52,0,0,1,1.7,1.52C616.16,200,615.52,200.55,614.46,200.55Z" transform="translate(-260.51 -166.24)"/><path class="cls-1" d="M631.54,200.77c-2.48,0-4.06-1.9-4.06-4.38s1.58-4.38,4.06-4.38,4,1.88,4,4.38S634,200.77,631.54,200.77Z" transform="translate(-260.51 -166.24)"/><path class="cls-1" d="M650.84,200.77c-2.48,0-4.06-1.9-4.06-4.38s1.58-4.38,4.06-4.38,4,1.88,4,4.38S653.3,200.77,650.84,200.77Z" transform="translate(-260.51 -166.24)"/><path class="cls-1" d="M710.15,195.81h-3v-3.6h3a1.81,1.81,0,1,1,0,3.6Z" transform="translate(-260.51 -166.24)"/><path class="cls-1" d="M724.61,198.29l2.08-5.74,2.08,5.74Z" transform="translate(-260.51 -166.24)"/></svg>