<svg id="Layer_1" data-name="Layer 1" xmlns="http://www.w3.org/2000/svg" viewBox="0 0 86.16 45.09"><defs><style>.cls-1{fill:#fff;}</style></defs><title>picto-vision</title><path class="cls-1" d="M217.37,172.52c-.74-.84-18.32-20.55-40.75-21.23a22.92,22.92,0,0,0-2.4,0c-22.44.69-40,20.4-40.76,21.23l-1.13,1.28,1.13,1.28c.74.84,18.32,20.55,40.75,21.23q.6,0,1.21,0c.4,0,.81,0,1.19,0,22.44-.69,40-20.39,40.76-21.23l1.13-1.28Zm-59,16a73.52,73.52,0,0,1-20.76-14.71,73.6,73.6,0,0,1,20.76-14.71,22.48,22.48,0,0,0,0,29.42Zm35.74-14.71a18.67,18.67,0,1,1-18.67-18.67A18.69,18.69,0,0,1,194.08,173.8Zm3.88,0a22.61,22.61,0,0,0-5.48-14.71,73.59,73.59,0,0,1,20.76,14.71,73.41,73.41,0,0,1-20.77,14.72A22.62,22.62,0,0,0,198,173.8Z" transform="translate(-132.33 -151.26)"/><path class="cls-1" d="M182.32,171.54H178V167l-.35-.11a7.3,7.3,0,1,0,4.79,5Z" transform="translate(-132.33 -151.26)"/></svg>