<svg id="Layer_1" data-name="Layer 1" xmlns="http://www.w3.org/2000/svg" viewBox="0 0 239.18 94.88"><defs><style>.cls-1{fill:#fff;}</style></defs><title>logo_blanc</title><path class="cls-1" d="M614.94,385.1c-.26,3.64-2.54,7.2-2.89,10.78s-1.7,4.59-5.36,4.4c-7-.36-3.63-10.5-3.17-14.58a6.58,6.58,0,0,0-.5-3.65,32.61,32.61,0,0,1-1.7-3.52c-1.57-4.94.65-8.09,5.58-8.49,3.41-.28,5.26.18,5.19,4.07,0,2.21,0,2.3,1.24,4.17a10.74,10.74,0,0,1,1.61,6.82" transform="translate(-581.41 -328.24)"/><path class="cls-1" d="M626.18,399.41c2.1-.2,5.09-1.42,5.87-3.62.61-1.7-1.11-2.49-2.39-3-2.88-1-9.82-.47-11.53,2.64s6.34,4.1,8,3.94" transform="translate(-581.41 -328.24)"/><path class="cls-1" d="M626.18,358.1c2.1-.2,5.09-1.42,5.87-3.62.61-1.7-1.11-2.49-2.39-3-2.88-1-9.82-.47-11.53,2.64s6.34,4.1,8,3.94" transform="translate(-581.41 -328.24)"/><path class="cls-1" d="M618.51,367.28c0-4.2,6.73-8.66,10.46-5.91,2.31,1.7.08,3.28.34,5.29a10.86,10.86,0,0,0,1.27,2.87,9.56,9.56,0,0,1,1,4.79c-.16,1.72-1.28,3-1.77,4.61-.26.86.51,1.52.89,2.2,1.47,2.58,1.1,6.91-1.93,8.48s-6.49-1-8.31-3.6a7.45,7.45,0,0,1-1.13-5.43,23.37,23.37,0,0,0,.59-6.45c-.3-2.33-1.37-4.47-1.39-6.86" transform="translate(-581.41 -328.24)"/><path class="cls-1" d="M646.56,376.55s3.81-2.2.59-4.69-8.2,0-8.2,0-3.07,2.2-3.07,5.27c0,4.75.51,9.53.85,14.27.17,2.45,0,4.78,1.57,6.77a6,6,0,0,0,6.08,2.11,5.09,5.09,0,0,0,4.39-4.4c.45-3.54,1.25-7.45.22-10.89-.27-.89-3.29-7.94-2.42-8.45" transform="translate(-581.41 -328.24)"/><path class="cls-1" d="M781.06,383.76c-2.4,2-.36,6.58,1,8.86a18.06,18.06,0,0,0,7.38,6.79,4.69,4.69,0,0,0,1.74.58,1.92,1.92,0,0,0,1.66-.63c.55-.7,1.26-1.24.83-2-.76-1.38-2.91-2.47-4.19-3.4a8.31,8.31,0,0,0,2-.5c.75-.18,1.51-.36,2.26-.56a18.92,18.92,0,0,0,4.31-1.64c1.79-1,3.75-3.89,1.48-5.52a13.91,13.91,0,0,0-3.79-1.61,23.86,23.86,0,0,0-8.26-1.52c-.71,0-.91,1.15-1,1.68a1.72,1.72,0,0,0,.94,2.06c1.81.94,6.32.61,8,1.77a66,66,0,0,1-8.93,2.74,4.26,4.26,0,0,1-1.67-4.36c.24-.91.77-1.93.25-2.71s-2.34-.88-3.07-.55a3.75,3.75,0,0,0-.87.53" transform="translate(-581.41 -328.24)"/><path class="cls-1" d="M747.13,385a3.14,3.14,0,0,0-.35-1.18c-.72-1.25-2.65.45-3,1.43a9.34,9.34,0,0,0-1,4.2c0,2.68,2.21,5.64,3.43,6.94,1.78,1.9,5.66,3.41,8.39,3.62a3.77,3.77,0,0,0,3.61-2,1.32,1.32,0,0,0-.78-2,32.37,32.37,0,0,0-3.85-.89,8,8,0,0,1-3.67-2.1,9.52,9.52,0,0,1-2.65-6.11c0-.56,0-1.27-.08-1.93" transform="translate(-581.41 -328.24)"/><path class="cls-1" d="M750.95,383.7c.1-.29,1.67-.82,2-1a5.56,5.56,0,0,1,2.59-.6c1.18.1,2.72,2.26,2.05,3.33-.3.48-1,.83-2.28.77s-3.63.12-3.65.12c-.88.06-.87-2.21-.72-2.67" transform="translate(-581.41 -328.24)"/><path class="cls-1" d="M753.1,390.56s-.68-1-.36-1.55,2.76-.68,3.81-.9a5.38,5.38,0,0,1,2.94.15,2.21,2.21,0,0,1,1,1.17,4.69,4.69,0,0,1,.59,1.35c.1.54-.47.93-1.06,1.18a10.34,10.34,0,0,1-3.14.33c-.64,0-1.91-.13-2.55-.18-1.07-.07-.7-.79-1.22-1.54" transform="translate(-581.41 -328.24)"/><path class="cls-1" d="M723.08,395.82c-.45-.12-.91-.19-1.26-.26a6.25,6.25,0,0,1-2.29-.67c-3-1.42-2.72-6.64-2.72-6.64,1.79,0,4-.22,5.81-.4a1.93,1.93,0,0,0,1.22-.43,1.84,1.84,0,0,0,.4-.84,15.13,15.13,0,0,0,.34-1.65c.2-1.31-1.84-1.48-2.76-1.55a27,27,0,0,0-4.36.27,99.16,99.16,0,0,1-10-.08,2.83,2.83,0,0,0-1.61.26,1.84,1.84,0,0,0-.79,1.34,2.06,2.06,0,0,0,1.51,2.58,31.66,31.66,0,0,0,5.6.41,19,19,0,0,0,.61,5.18,8.93,8.93,0,0,0,2.46,4.52,8.32,8.32,0,0,0,4.51,2.06c1.7.24,3.65-.06,4.73-1.39a1.56,1.56,0,0,0,.28-1.79,2.9,2.9,0,0,0-1.69-.92" transform="translate(-581.41 -328.24)"/><path class="cls-1" d="M689.73,394a4.24,4.24,0,0,0-2.26-3.08c-1.73-.88-3.81-.86-5.7-.88-2.3,0-4.59-.25-6.89-.44-1.35-.11-1.84,0-2-.37s1.67-.86,2.18-1a19.35,19.35,0,0,1,5.79-.41c1,.06,2,.18,2.93.33s1.79.48,2.71.61a1.82,1.82,0,0,0,2.08-1.4,2.61,2.61,0,0,0,.06-1.87,1.35,1.35,0,0,0-.8-.71,21,21,0,0,0-13.46-.55c-2.41.78-5.15,2.17-4.73,5.15.33,2.32,2.85,3.06,4.32,3.29a39.43,39.43,0,0,0,5,.48c1.66,0,3.32-.14,5-.15.59,0,2.4-.09,2.52.75.08.58-1.63,1.68-2.57,2-3.22,1.08-9.19.36-9.19.36a4.57,4.57,0,0,0-1.6-.06,6.72,6.72,0,0,0-2.85,1.3.58.58,0,0,0-.22.6c.13.46.8.61,2.27.92,4.39.92,9.19,1.91,13.5.13,2-.83,4.33-2.5,3.92-5" transform="translate(-581.41 -328.24)"/><path class="cls-1" d="M779.92,367.8l0-.25a35.16,35.16,0,0,1,.43-9.49c.47-3.12-2.38-2.92-4.55-3a29.83,29.83,0,0,0-7.48.2A3.58,3.58,0,0,0,766,356.4a3.43,3.43,0,0,0-.52,1.48c-.61,3.74.63,7.61-.06,11.33a7.29,7.29,0,0,0-.27,2.62,3.93,3.93,0,0,0,3.19,2.8,19.3,19.3,0,0,0,4.49.08,22.32,22.32,0,0,0,4.15-.19,4.25,4.25,0,0,0,3.2-2.37c.53-1.37,0-2.89-.24-4.35m-3.75,2.33c0,1.53-1.25,1.19-2.78,1.19H772c-.65,0-1.56.32-2.13-.12a3,3,0,0,1-.64-2.28c.05-1.22,0-7,0-8.73,0-1.53,1.25-1.19,2.78-1.19h1.35c1.53,0,2.78-.34,2.78,1.19a70.1,70.1,0,0,0,0,9.94" transform="translate(-581.41 -328.24)"/><path class="cls-1" d="M820.14,415.25l0-.25c-.19-1.55-1.08-20.66-1-40.2.09-20.5,1.18-41.47,1.42-43.09.47-3.12-3.33-3.24-5.51-3.36-1.23-.07-142.86-.12-155.75-.12-38.44,0-68.87.06-69.42.07a32.77,32.77,0,0,0-5,.19,4.25,4.25,0,0,0-3.2,2.37c-.53,1.37,0,3.77.24,5.23l0,.25c.19,1.55,1.08,20.66,1,40.2-.09,20.5-1.18,41.47-1.42,43.09-.47,3.12,3.33,3.24,5.51,3.36,1.23.07,142.86.12,155.75.12,38.44,0,68.87-.06,69.42-.07a32.89,32.89,0,0,0,5-.19,4.25,4.25,0,0,0,3.2-2.37c.53-1.37,0-3.77-.24-5.23m-4.62,2.33c0,1.53-1.25,1.13-2.78,1.13H589.27c-1.53,0-2.78.34-2.78-1.19.13-.89,1.06-20.79,1.05-41,0-20.87-.95-42-1.05-42.77,0-1.53,1.25-1.19,2.78-1.19l223.46.06c1.53,0,2.78-.34,2.78,1.19-.13.89-1.06,20.79-1.06,41,0,20.87.95,42,1.06,42.77" transform="translate(-581.41 -328.24)"/><path class="cls-1" d="M800,367.8l0-.25a35.16,35.16,0,0,1,.43-9.49c.47-3.12-2.38-2.92-4.55-3a29.83,29.83,0,0,0-7.48.2,3.58,3.58,0,0,0-2.31,1.18,3.43,3.43,0,0,0-.52,1.48c-.61,3.74.63,7.61-.06,11.33a7.29,7.29,0,0,0-.27,2.62,3.93,3.93,0,0,0,3.19,2.8,19.3,19.3,0,0,0,4.49.08,22.32,22.32,0,0,0,4.15-.19,4.25,4.25,0,0,0,3.2-2.37c.53-1.37,0-2.89-.24-4.35m-3.75,2.33c0,1.53-1.25,1.19-2.78,1.19h-1.35c-.65,0-1.56.32-2.13-.12a3,3,0,0,1-.64-2.28c.05-1.22,0-7,0-8.73,0-1.53,1.25-1.19,2.78-1.19h1.35c1.53,0,2.78-.34,2.78,1.19a70.1,70.1,0,0,0,0,9.94" transform="translate(-581.41 -328.24)"/><path class="cls-1" d="M708.91,371.48a48.57,48.57,0,0,1-4.65-11c-.44-1.59-1.42-5.42-3.77-5.41a2.91,2.91,0,0,0-2.49,2c-2.17,5.45-3,9.23-5.41,13.79-1.3,2.44-2.34,1.74.49,3.67a2.38,2.38,0,0,0,2.58,0,1.48,1.48,0,0,0,.61-.67c.08-.14.39-.86.57-.9.46-.1,7.44,0,7.44,0,.19,0,1,2.46,2.8,1.93,1.07-.32,2.16-.82,2.22-1.94a2.48,2.48,0,0,0-.38-1.45m-8.5-2.05h-2.82l2.82-8.29,2.82,8.29Z" transform="translate(-581.41 -328.24)"/><path class="cls-1" d="M690.22,364.74a2.65,2.65,0,0,0-.58-.82,4,4,0,0,0-1.76-.89,16.51,16.51,0,0,0-3.74-.32c.44-.79,1-1.57,1.43-2.39a2.79,2.79,0,0,0,.06-2.61,3.12,3.12,0,0,0-1.37-1.08,14.83,14.83,0,0,0-4.48-1.17,46.4,46.4,0,0,0-6.65-.39c-1.18,0-2.57.18-3.16,1.21a3.57,3.57,0,0,0-.31,1.82q0,4.39,0,8.77,0,2.19,0,4.38c0,.94-.41,2.94.69,3.44a2,2,0,0,0,1.21.07,3.08,3.08,0,0,0,2.27-1.63,5.26,5.26,0,0,0,.13-2.68,21.61,21.61,0,0,1-.12-2.47,1.93,1.93,0,0,1,.39-1.37,2,2,0,0,1,1.47-.39h6.84a1,1,0,0,1,.81.25c.28.35,0,.86-.35,1.17a18.55,18.55,0,0,1-4.44,2.5c-1.52.78-3,2-3.31,3.66a.4.4,0,0,0,.32.57c1.75.45,3.57-.3,5.23-1l4.53-2a15.63,15.63,0,0,0,3-1.59,5.24,5.24,0,0,0,2-2.67,3.42,3.42,0,0,0-.15-2.34m-10.12-3.21c-.67,1.21-5.88,1.29-6,1.18-.32-.27-.15-3.38-.18-3.38,1.81,0,2.78-.07,4.59,0,.5,0,1.74-.1,2,.43s-.19,1.3-.42,1.72" transform="translate(-581.41 -328.24)"/><path class="cls-1" d="M761.12,364.74a2.65,2.65,0,0,0-.58-.82,4,4,0,0,0-1.76-.89,16.51,16.51,0,0,0-3.74-.32c.44-.79,1-1.57,1.43-2.39a2.79,2.79,0,0,0,.06-2.61,3.12,3.12,0,0,0-1.37-1.08,14.83,14.83,0,0,0-4.48-1.17,46.4,46.4,0,0,0-6.65-.39c-1.18,0-2.57.18-3.16,1.21a3.57,3.57,0,0,0-.31,1.82q0,4.39,0,8.77,0,2.19,0,4.38c0,.94-.41,2.94.69,3.44a2,2,0,0,0,1.21.07,3.09,3.09,0,0,0,2.27-1.63,5.26,5.26,0,0,0,.13-2.68,21.61,21.61,0,0,1-.12-2.47,1.92,1.92,0,0,1,.39-1.37,2,2,0,0,1,1.47-.39h6.84a1,1,0,0,1,.81.25c.28.35,0,.86-.35,1.17a18.55,18.55,0,0,1-4.44,2.5c-1.52.78-3,2-3.31,3.66a.4.4,0,0,0,.32.57c1.75.45,3.57-.3,5.23-1l4.53-2a15.63,15.63,0,0,0,3-1.59,5.24,5.24,0,0,0,2-2.67,3.42,3.42,0,0,0-.15-2.34M751,361.54c-.67,1.21-5.88,1.29-6,1.18-.32-.27-.15-3.38-.18-3.38,1.81,0,2.78-.07,4.59,0,.5,0,1.74-.1,2,.43s-.19,1.3-.42,1.72" transform="translate(-581.41 -328.24)"/><path class="cls-1" d="M718,363.64l4.46,8.73a2.37,2.37,0,0,0,.93,1.14,1.6,1.6,0,0,0,1.71-.35,4.7,4.7,0,0,0,1-1.54l3.52-7.38,2.27,9.58a1.89,1.89,0,0,0,.58,1.15,1.76,1.76,0,0,0,1.4.13,2.86,2.86,0,0,0,2-1.17,2.74,2.74,0,0,0,.22-1.57c-.13-1.51-1.67-6.21-1.87-7.13-.38-1.73-.54-3.5-.76-5.26-.2-1.52-.27-3.4-1.51-4.5a1.26,1.26,0,0,0-.65-.34c-1.67-.22-2.84,3.18-3.43,4.33a47.16,47.16,0,0,0-2,4.53c-.29.75-.56,1.5-.83,2.25-.14.39-.93,1.9-.79,2.26A74.11,74.11,0,0,0,719,357.24a3.78,3.78,0,0,0-2.36-2c-1.08-.16-1.67,1-1.91,1.9s-.36,5.58-.64,7.71c-.47,3.64-2,7.85-2,9.11a1.2,1.2,0,0,0,.24.8,1.14,1.14,0,0,0,.66.28,4.63,4.63,0,0,0,2.82-.42,2.22,2.22,0,0,0,.91-.74,2.93,2.93,0,0,0,.31-1.58c0-2.89.93-5.78,1-8.65" transform="translate(-581.41 -328.24)"/></svg>