<svg id="Layer_1" data-name="Layer 1" xmlns="http://www.w3.org/2000/svg" viewBox="0 0 455.33 57"><defs><style>.cls-1{opacity:0.8;}.cls-2{fill:#fff;}</style></defs><title>500_bouton_subscribe</title><g class="cls-1"><path class="cls-2" d="M324.83,244.8a1.85,1.85,0,0,0-2.06-1.85h-4.7v3.7h4.7A1.82,1.82,0,0,0,324.83,244.8Z" transform="translate(-30.33 -220.02)"/><path class="cls-2" d="M220.83,249.94H216v4h4.86c1.4,0,2.24-.74,2.24-2A2,2,0,0,0,220.83,249.94Z" transform="translate(-30.33 -220.02)"/><path class="cls-2" d="M222.73,244.8a1.85,1.85,0,0,0-2.06-1.85H216v3.7h4.7A1.82,1.82,0,0,0,222.73,244.8Z" transform="translate(-30.33 -220.02)"/><path class="cls-2" d="M287.26,242.95h-4v4.75h4a2.39,2.39,0,1,0,0-4.75Z" transform="translate(-30.33 -220.02)"/><path class="cls-2" d="M322.92,249.94h-4.86v4h4.86c1.4,0,2.24-.74,2.24-2A2,2,0,0,0,322.92,249.94Z" transform="translate(-30.33 -220.02)"/><path class="cls-2" d="M30.33,220v57H485.67V220Zm142.19,37.55a10.17,10.17,0,0,1-7.5-2.8l2.06-2.93a7.74,7.74,0,0,0,5.6,2.4c2.09,0,3.06-.93,3.06-2,0-3.06-10.14-.93-10.14-7.55,0-2.93,2.54-5.36,6.68-5.36a9.8,9.8,0,0,1,6.87,2.46l-2.09,2.8a7.57,7.57,0,0,0-5.12-1.93c-1.58,0-2.48.69-2.48,1.74,0,2.77,10.11.9,10.11,7.47C179.57,255.15,177.25,257.58,172.52,257.58Zm30.73-7.37c0,4.36-2.59,7.37-7.95,7.37s-7.95-3-7.95-7.37V239.65h3.8V250.1a4.13,4.13,0,1,0,8.26,0V239.65h3.83Zm18.32,7.05H212V239.65h9.27c3.35,0,5.07,2.14,5.07,4.49a3.93,3.93,0,0,1-3,4,4.23,4.23,0,0,1,3.38,4.3C226.7,255.15,225,257.26,221.57,257.26Zm19.51.32a10.17,10.17,0,0,1-7.5-2.8l2.06-2.93a7.74,7.74,0,0,0,5.6,2.4c2.09,0,3.06-.93,3.06-2,0-3.06-10.14-.93-10.14-7.55,0-2.93,2.54-5.36,6.68-5.36a9.8,9.8,0,0,1,6.87,2.46l-2.09,2.8a7.57,7.57,0,0,0-5.12-1.93c-1.58,0-2.48.69-2.48,1.74,0,2.77,10.11.9,10.11,7.47C248.13,255.15,245.81,257.58,241.08,257.58Zm23.39-3.33a4.76,4.76,0,0,0,4.12-2.56l3.22,1.56a8.07,8.07,0,0,1-7.34,4.33c-5.31,0-9.4-3.7-9.4-9.11s4.09-9.11,9.4-9.11a8,8,0,0,1,7.34,4.3l-3.22,1.58a4.76,4.76,0,0,0-4.12-2.56,5.79,5.79,0,0,0,0,11.57Zm24.82,3L285.83,251h-2.75v6.26h-3.75V239.65h8.24c3.67,0,5.94,2.4,5.94,5.68a5.1,5.1,0,0,1-3.88,5.23l4,6.71Zm16,0h-3.75V239.65h3.75Zm18.32,0h-9.56V239.65h9.27c3.35,0,5.07,2.14,5.07,4.49a3.93,3.93,0,0,1-3,4,4.23,4.23,0,0,1,3.38,4.3C328.79,255.15,327,257.26,323.66,257.26Zm25.69-14.31h-8.71v3.7h8.53v3.3h-8.53v4h8.71v3.3H336.89V239.65h12.46Z" transform="translate(-30.33 -220.02)"/><path class="cls-2" d="M287.26,247.7h-4v-4.75h4a2.39,2.39,0,1,1,0,4.75Z" transform="translate(-30.33 -220.02)"/></g></svg>