<svg id="Layer_1" data-name="Layer 1" xmlns="http://www.w3.org/2000/svg" viewBox="0 0 462.67 32"><defs><style>.cls-1{opacity:0.6;}.cls-2{fill:#fff;}</style></defs><title>500_bouton_superjoli</title><g class="cls-1"><path class="cls-2" d="M186.95,218.89a2.83,2.83,0,1,0,2.48,2.8A2.54,2.54,0,0,0,186.95,218.89Z" transform="translate(-19.67 -203.75)"/><path class="cls-2" d="M151.71,218.89a2.82,2.82,0,0,0-2.18,1.1v3.4a2.86,2.86,0,0,0,2.18,1.12,2.84,2.84,0,0,0,0-5.62Z" transform="translate(-19.67 -203.75)"/><path class="cls-2" d="M136.31,218.71a2.23,2.23,0,0,0-2.36,2.06h4.76A2.21,2.21,0,0,0,136.31,218.71Z" transform="translate(-19.67 -203.75)"/><path class="cls-2" d="M91.35,218.89a2.83,2.83,0,1,0,2.48,2.8A2.54,2.54,0,0,0,91.35,218.89Z" transform="translate(-19.67 -203.75)"/><path class="cls-2" d="M19.67,203.75v32H482.33v-32Zm56,20.5a3.61,3.61,0,0,0,3.12-1.94l2.44,1.18a6.11,6.11,0,0,1-5.56,3.28,6.91,6.91,0,1,1,0-13.8,6.06,6.06,0,0,1,5.56,3.26l-2.44,1.2a3.61,3.61,0,0,0-3.12-1.94,4.38,4.38,0,0,0,0,8.76Zm15.68,2.52a5.07,5.07,0,1,1,5.12-5.08A4.91,4.91,0,0,1,91.35,226.77Zm20.1-.24h-2.56v-5.84a1.57,1.57,0,0,0-1.78-1.8,2.83,2.83,0,0,0-2.2,1.12v6.52h-2.54v-9.66h2.54v1.24a4.52,4.52,0,0,1,3.38-1.48,2.82,2.82,0,0,1,3.16,3.08Zm11.12-2a2.41,2.41,0,0,0,2-1.06l1.66,1.56a4.5,4.5,0,0,1-3.82,1.76,5.07,5.07,0,1,1,0-10.14,4.49,4.49,0,0,1,3.82,1.74l-1.66,1.56a2.34,2.34,0,0,0-2-1,2.82,2.82,0,0,0,0,5.62Zm18.58-2H134a2.59,2.59,0,0,0,2.78,2.16,4,4,0,0,0,2.56-.94l1.14,1.68a6,6,0,0,1-4,1.34,5.07,5.07,0,1,1-.16-10.14c2.9,0,4.84,2.16,4.84,5.3Zm11.36,4.24a3.72,3.72,0,0,1-3-1.48v4.92H147V216.87h2.54v1.22a3.73,3.73,0,0,1,3-1.46c2.48,0,4.28,1.84,4.28,5.06S155,226.77,152.51,226.77Zm13.38,0a2.41,2.41,0,0,1-2.72-2.66v-5h-1.6v-2.22h1.6v-2.64h2.54v2.64h2v2.22h-2v4.34c0,.62.32,1.08.88,1.08a1.28,1.28,0,0,0,.88-.3l.54,1.94A3.14,3.14,0,0,1,165.89,226.77Zm10.06-.24h-2.54v-9.66h2.54Zm-1.28-10.7a1.51,1.51,0,0,1-1.5-1.52,1.51,1.51,0,0,1,3,0A1.52,1.52,0,0,1,174.67,215.83Zm12.28,10.94a5.07,5.07,0,1,1,5.12-5.08A4.91,4.91,0,0,1,186.95,226.77Zm20.1-.24h-2.56v-5.84a1.57,1.57,0,0,0-1.78-1.8,2.83,2.83,0,0,0-2.2,1.12v6.52H198v-9.66h2.54v1.24a4.52,4.52,0,0,1,3.38-1.48,2.82,2.82,0,0,1,3.16,3.08Zm8.58.22a1.62,1.62,0,1,1,1.62-1.62A1.64,1.64,0,0,1,215.63,226.75Zm0-6.78a1.62,1.62,0,1,1,1.62-1.62A1.64,1.64,0,0,1,215.63,220Zm21.58,6.8a7.71,7.71,0,0,1-5.68-2.12l1.56-2.22a5.86,5.86,0,0,0,4.24,1.82c1.58,0,2.32-.7,2.32-1.48,0-2.32-7.68-.7-7.68-5.72,0-2.22,1.92-4.06,5.06-4.06a7.42,7.42,0,0,1,5.2,1.86L240.65,217a5.73,5.73,0,0,0-3.88-1.46c-1.2,0-1.88.52-1.88,1.32,0,2.1,7.66.68,7.66,5.66C242.55,224.93,240.79,226.77,237.21,226.77Zm23.28-5.58c0,3.3-2,5.58-6,5.58s-6-2.28-6-5.58v-8h2.88v7.92a3.13,3.13,0,1,0,6.26,0v-7.92h2.9Zm12.88.58H270v4.76h-2.84V213.19h6.24a4.3,4.3,0,1,1,0,8.58Zm19.7-6.08h-6.6v2.8h6.46V221h-6.46v3h6.6v2.5h-9.44V213.19h9.44Zm13.76,10.84-2.62-4.74h-2.08v4.74h-2.84V213.19h6.24a4.17,4.17,0,0,1,4.5,4.3,3.86,3.86,0,0,1-2.94,4l3,5.08Zm16.42-4.38c0,3.14-2,4.62-4.7,4.62a5,5,0,0,1-3.6-1.32l1.24-2.16a3,3,0,0,0,2.12,1,2,2,0,0,0,2.08-2.14v-8.92h2.86Zm13,4.62a6.9,6.9,0,1,1,7-6.9A6.7,6.7,0,0,1,336.21,226.77Zm21.34-.24H349V213.19h2.86V224h5.64Zm8.76,0h-2.84V213.19h2.84Zm7.88.22a1.62,1.62,0,1,1,1.62-1.62A1.64,1.64,0,0,1,374.18,226.75Zm14.38-2.5a3.61,3.61,0,0,0,3.12-1.94l2.44,1.18a6.11,6.11,0,0,1-5.56,3.28,6.91,6.91,0,1,1,0-13.8,6.06,6.06,0,0,1,5.56,3.26l-2.44,1.2a3.61,3.61,0,0,0-3.12-1.94,4.38,4.38,0,0,0,0,8.76Zm17.6,2.52a6.9,6.9,0,1,1,7-6.9A6.7,6.7,0,0,1,406.17,226.77Zm27.42-.24h-2.86v-9.62L427,226.53h-1.24L422,216.91v9.62h-2.84V213.19h4l3.24,8.34,3.24-8.34h4Z" transform="translate(-19.67 -203.75)"/><path class="cls-2" d="M336.21,215.49c-2.48,0-4.06,1.88-4.06,4.38s1.58,4.38,4.06,4.38,4-1.9,4-4.38S338.67,215.49,336.21,215.49Z" transform="translate(-19.67 -203.75)"/><path class="cls-2" d="M406.17,215.49c-2.48,0-4.06,1.88-4.06,4.38s1.58,4.38,4.06,4.38,4-1.9,4-4.38S408.63,215.49,406.17,215.49Z" transform="translate(-19.67 -203.75)"/><path class="cls-2" d="M305.13,215.69h-3v3.6h3a1.81,1.81,0,1,0,0-3.6Z" transform="translate(-19.67 -203.75)"/><path class="cls-2" d="M273,215.69h-3v3.58h3a1.8,1.8,0,1,0,0-3.58Z" transform="translate(-19.67 -203.75)"/></g></svg>