<svg id="Layer_1" data-name="Layer 1" xmlns="http://www.w3.org/2000/svg" viewBox="0 0 456 57"><defs><style>.cls-1{opacity:0.8;}.cls-2{fill:#fff;}</style></defs><title>500_bouton_purchase</title><g class="cls-1"><path class="cls-2" d="M315.54,93.61c-2.48,0-4.06,1.88-4.06,4.38s1.58,4.38,4.06,4.38,4-1.9,4-4.38S318,93.61,315.54,93.61Z" transform="translate(-11.88 -67.85)"/><path class="cls-2" d="M298.46,99.12h-3.68v3h3.68c1.06,0,1.7-.56,1.7-1.52A1.52,1.52,0,0,0,298.46,99.12Z" transform="translate(-11.88 -67.85)"/><polygon class="cls-2" points="105.14 32.05 109.3 32.05 107.22 26.31 105.14 32.05"/><path class="cls-2" d="M299.9,95.21a1.4,1.4,0,0,0-1.56-1.4h-3.56v2.8h3.56A1.38,1.38,0,0,0,299.9,95.21Z" transform="translate(-11.88 -67.85)"/><path class="cls-2" d="M215.74,93.81h-3v3.6h3a1.81,1.81,0,1,0,0-3.6Z" transform="translate(-11.88 -67.85)"/><path class="cls-2" d="M242.42,99.12h-3.68v3h3.68c1.06,0,1.7-.56,1.7-1.52A1.52,1.52,0,0,0,242.42,99.12Z" transform="translate(-11.88 -67.85)"/><path class="cls-2" d="M243.86,95.21a1.4,1.4,0,0,0-1.56-1.4h-3.56v2.8h3.56A1.38,1.38,0,0,0,243.86,95.21Z" transform="translate(-11.88 -67.85)"/><path class="cls-2" d="M334.84,93.61c-2.48,0-4.06,1.88-4.06,4.38s1.58,4.38,4.06,4.38,4-1.9,4-4.38S337.3,93.61,334.84,93.61Z" transform="translate(-11.88 -67.85)"/><polygon class="cls-2" points="244.72 32.05 248.88 32.05 246.8 26.31 244.72 32.05"/><path class="cls-2" d="M178.26,93.61c-2.48,0-4.06,1.88-4.06,4.38s1.58,4.38,4.06,4.38,4-1.9,4-4.38S180.72,93.61,178.26,93.61Z" transform="translate(-11.88 -67.85)"/><polygon class="cls-2" points="396.74 32.05 400.9 32.05 398.82 26.31 396.74 32.05"/><path class="cls-2" d="M66.2,93.81h-3v3.6h3a1.81,1.81,0,1,0,0-3.6Z" transform="translate(-11.88 -67.85)"/><path class="cls-2" d="M394.15,93.81h-3v3.6h3a1.81,1.81,0,1,0,0-3.6Z" transform="translate(-11.88 -67.85)"/><path class="cls-2" d="M11.88,67.85v57h456v-57Zm19.54,32H28v4.76H25.18V91.31h6.24a4.3,4.3,0,1,1,0,8.58Zm22.3-.58c0,3.3-2,5.58-6,5.58s-6-2.28-6-5.58v-8h2.88v7.92a2.89,2.89,0,0,0,3.14,3.14,2.88,2.88,0,0,0,3.12-3.14V91.31h2.9Zm14.18,5.34-2.62-4.74H63.2v4.74H60.36V91.31H66.6a4.17,4.17,0,0,1,4.5,4.3,3.86,3.86,0,0,1-2.94,4l3,5.08Zm15.8-2.28a3.61,3.61,0,0,0,3.12-1.94l2.44,1.18a6.11,6.11,0,0,1-5.56,3.28,6.9,6.9,0,1,1,0-13.8,6.06,6.06,0,0,1,5.56,3.26l-2.44,1.2a3.61,3.61,0,0,0-3.12-1.94,4.38,4.38,0,0,0,0,8.76ZM107,104.66H104.1V99H97.8v5.62H95V91.31H97.8v5.24h6.3V91.31H107Zm15.84,0L122,102.4h-5.72l-.84,2.26h-3.22l5.14-13.34h3.56L126,104.66Zm13.08.24a7.71,7.71,0,0,1-5.68-2.12l1.56-2.22a5.86,5.86,0,0,0,4.24,1.82c1.58,0,2.32-.7,2.32-1.48,0-2.32-7.68-.7-7.68-5.72,0-2.22,1.92-4.06,5.06-4.06A7.43,7.43,0,0,1,140.9,93l-1.58,2.12a5.73,5.73,0,0,0-3.88-1.46c-1.2,0-1.88.52-1.88,1.32,0,2.1,7.66.68,7.66,5.66C141.22,103.06,139.46,104.9,135.88,104.9Zm20.68-11.08H150v2.8h6.46v2.5H150v3h6.6v2.5h-9.44V91.31h9.44Zm21.7,11.08a6.9,6.9,0,1,1,7-6.9A6.7,6.7,0,0,1,178.26,104.9Zm25-5.58c0,3.3-2,5.58-6,5.58s-6-2.28-6-5.58v-8h2.88v7.92a3.13,3.13,0,1,0,6.26,0V91.31h2.9Zm14.18,5.34-2.62-4.74h-2.08v4.74H209.9V91.31h6.24a4.17,4.17,0,0,1,4.5,4.3,3.86,3.86,0,0,1-2.94,4l3,5.08Zm25.7,0h-7.24V91.31h7c2.54,0,3.84,1.62,3.84,3.4a3,3,0,0,1-2.3,3.06A3.21,3.21,0,0,1,247,101C247,103.06,245.7,104.66,243.14,104.66Zm19.24,0-.84-2.26h-5.72l-.84,2.26h-3.22l5.14-13.34h3.56l5.14,13.34Zm22.92,0h-2.86V95l-3.76,9.62h-1.24L273.68,95v9.62h-2.84V91.31h4l3.24,8.34,3.24-8.34h4Zm13.88,0h-7.24V91.31h7c2.54,0,3.84,1.62,3.84,3.4a3,3,0,0,1-2.3,3.06,3.21,3.21,0,0,1,2.56,3.26C303.06,103.06,301.74,104.66,299.18,104.66Zm16.36.24a6.9,6.9,0,1,1,7-6.9A6.7,6.7,0,0,1,315.54,104.9Zm19.3,0a6.9,6.9,0,1,1,7-6.9A6.7,6.7,0,0,1,334.84,104.9Zm26.86,0a7.71,7.71,0,0,1-5.68-2.12l1.56-2.22a5.86,5.86,0,0,0,4.24,1.82c1.58,0,2.32-.7,2.32-1.48,0-2.32-7.68-.7-7.68-5.72,0-2.22,1.92-4.06,5.06-4.06a7.43,7.43,0,0,1,5.2,1.86l-1.58,2.12a5.73,5.73,0,0,0-3.88-1.46c-1.2,0-1.88.52-1.88,1.32,0,2.1,7.66.68,7.66,5.66C367,103.06,365.27,104.9,361.69,104.9Zm20.8-11.08h-3.88v10.84h-2.86V93.81h-3.9v-2.5H382.5Zm13.36,10.84-2.62-4.74h-2.08v4.74h-2.84V91.31h6.24a4.17,4.17,0,0,1,4.5,4.3,3.86,3.86,0,0,1-2.94,4l3,5.08Zm18.54,0-.84-2.26h-5.72l-.84,2.26h-3.22l5.14-13.34h3.56l5.14,13.34Zm20.8,0h-3l-2.34-9.16-2.32,9.16h-3l-3.82-13.34h3.18l2.34,9.64,2.54-9.64H431l2.52,9.64,2.34-9.64H439Zm13.9.24a7.71,7.71,0,0,1-5.68-2.12l1.56-2.22a5.86,5.86,0,0,0,4.24,1.82c1.58,0,2.32-.7,2.32-1.48,0-2.32-7.68-.7-7.68-5.72,0-2.22,1.92-4.06,5.06-4.06a7.43,7.43,0,0,1,5.2,1.86l-1.58,2.12a5.73,5.73,0,0,0-3.88-1.46c-1.2,0-1.88.52-1.88,1.32,0,2.1,7.66.68,7.66,5.66C454.44,103.06,452.67,104.9,449.09,104.9Z" transform="translate(-11.88 -67.85)"/><path class="cls-2" d="M31,93.81H28v3.58h3a1.8,1.8,0,1,0,0-3.58Z" transform="translate(-11.88 -67.85)"/><path class="cls-2" d="M31,97.39H28V93.81h3a1.8,1.8,0,1,1,0,3.58Z" transform="translate(-11.88 -67.85)"/><path class="cls-2" d="M66.2,97.42h-3v-3.6h3a1.81,1.81,0,1,1,0,3.6Z" transform="translate(-11.88 -67.85)"/><path class="cls-2" d="M117,99.9l2.08-5.74,2.08,5.74Z" transform="translate(-11.88 -67.85)"/><path class="cls-2" d="M178.26,102.38c-2.48,0-4.06-1.9-4.06-4.38s1.58-4.38,4.06-4.38,4,1.88,4,4.38S180.72,102.38,178.26,102.38Z" transform="translate(-11.88 -67.85)"/><path class="cls-2" d="M215.74,97.42h-3v-3.6h3a1.81,1.81,0,1,1,0,3.6Z" transform="translate(-11.88 -67.85)"/><path class="cls-2" d="M238.74,93.81h3.56a1.4,1.4,0,0,1,1.56,1.4,1.38,1.38,0,0,1-1.56,1.4h-3.56Zm3.68,8.34h-3.68v-3h3.68a1.52,1.52,0,0,1,1.7,1.52C244.12,101.6,243.48,102.16,242.42,102.16Z" transform="translate(-11.88 -67.85)"/><path class="cls-2" d="M256.6,99.9l2.08-5.74,2.08,5.74Z" transform="translate(-11.88 -67.85)"/><path class="cls-2" d="M294.77,93.81h3.56a1.4,1.4,0,0,1,1.56,1.4,1.38,1.38,0,0,1-1.56,1.4h-3.56Zm3.68,8.34h-3.68v-3h3.68a1.52,1.52,0,0,1,1.7,1.52C300.16,101.6,299.52,102.16,298.46,102.16Z" transform="translate(-11.88 -67.85)"/><path class="cls-2" d="M315.54,102.38c-2.48,0-4.06-1.9-4.06-4.38s1.58-4.38,4.06-4.38,4,1.88,4,4.38S318,102.38,315.54,102.38Z" transform="translate(-11.88 -67.85)"/><path class="cls-2" d="M334.84,102.38c-2.48,0-4.06-1.9-4.06-4.38s1.58-4.38,4.06-4.38,4,1.88,4,4.38S337.3,102.38,334.84,102.38Z" transform="translate(-11.88 -67.85)"/><path class="cls-2" d="M394.15,97.42h-3v-3.6h3a1.81,1.81,0,1,1,0,3.6Z" transform="translate(-11.88 -67.85)"/><path class="cls-2" d="M408.61,99.9l2.08-5.74,2.08,5.74Z" transform="translate(-11.88 -67.85)"/></g></svg>