<svg id="Layer_1" data-name="Layer 1" xmlns="http://www.w3.org/2000/svg" viewBox="0 0 63.76 33.37"><defs><style>.cls-1{fill:#fff;}</style></defs><title>all_picto_vision</title><path class="cls-1" d="M627.76,408.61c-.55-.62-13.56-15.2-30.15-15.71a17,17,0,0,0-1.78,0c-16.6.51-29.61,15.09-30.16,15.71l-.83.95.83.95c.55.62,13.56,15.2,30.15,15.71l.89,0,.88,0c16.6-.51,29.62-15.09,30.16-15.71l.83-.95Zm-43.67,11.83a54.41,54.41,0,0,1-15.36-10.88,54.46,54.46,0,0,1,15.36-10.88,16.64,16.64,0,0,0,0,21.77Zm26.44-10.88a13.82,13.82,0,1,1-13.82-13.82A13.83,13.83,0,0,1,610.53,409.56Zm2.87,0a16.73,16.73,0,0,0-4.05-10.88,54.46,54.46,0,0,1,15.36,10.88,54.33,54.33,0,0,1-15.37,10.89A16.74,16.74,0,0,0,613.4,409.56Z" transform="translate(-564.84 -392.88)"/><path class="cls-1" d="M601.83,407.88h-3.21v-3.36l-.26-.08a5.41,5.41,0,1,0,3.55,3.72Z" transform="translate(-564.84 -392.88)"/></svg>