<svg id="Layer_1" data-name="Layer 1" xmlns="http://www.w3.org/2000/svg" viewBox="0 0 82.41 82.41"><defs><style>.cls-1{opacity:0.5;}.cls-2{fill:#fff;}</style></defs><title>all_picto_instagram_black</title><g class="cls-1"><rect x="1" y="1" width="80.41" height="80.41"/><path class="cls-2" d="M193.2,470.85v78.41H114.8V470.85H193.2m2-2H112.8v82.41H195.2V468.85Z" transform="translate(-112.8 -468.85)"/></g><path class="cls-2" d="M138.25,539.94h31.51a14.15,14.15,0,0,0,14.13-14.13V494.3a14.16,14.16,0,0,0-14.13-14.13H138.25a14.17,14.17,0,0,0-14.13,14.13v31.51A14.16,14.16,0,0,0,138.25,539.94Zm-10.6-45.64a10.63,10.63,0,0,1,10.6-10.59h31.51a10.62,10.62,0,0,1,10.59,10.59v31.51a10.61,10.61,0,0,1-10.59,10.6H138.25a10.62,10.62,0,0,1-10.6-10.6Z" transform="translate(-112.8 -468.85)"/><path class="cls-2" d="M154,529.33a19.27,19.27,0,1,0-19.27-19.27A19.27,19.27,0,0,0,154,529.33Zm0-34.55a15.27,15.27,0,1,1-15.27,15.27A15.28,15.28,0,0,1,154,494.78Z" transform="translate(-112.8 -468.85)"/><path class="cls-2" d="M172.91,494.37a3.1,3.1,0,1,0-3.1-3.1A3.1,3.1,0,0,0,172.91,494.37Z" transform="translate(-112.8 -468.85)"/></svg>