<svg id="Layer_1" data-name="Layer 1" xmlns="http://www.w3.org/2000/svg" viewBox="0 0 82.41 82.41"><defs><style>.cls-1{opacity:0.5;}.cls-2{fill:#fff;}</style></defs><title>all_picto_twitter_black</title><g class="cls-1"><rect x="1" y="1" width="80.41" height="80.41"/><path class="cls-2" d="M201.25,534.85v78.41H122.85V534.85h78.41m2-2H120.85v82.41h82.41V532.85Z" transform="translate(-120.85 -532.85)"/></g><path class="cls-2" d="M141.45,587a23.94,23.94,0,0,0,13,3.8c15.55,0,24.05-12.88,24.05-24.05,0-.37,0-.73,0-1.09a17.14,17.14,0,0,0,4.22-4.38,16.84,16.84,0,0,1-4.85,1.33,8.48,8.48,0,0,0,3.72-4.68,16.92,16.92,0,0,1-5.37,2.05,8.46,8.46,0,0,0-14.4,7.71,24,24,0,0,1-17.42-8.83,8.46,8.46,0,0,0,2.62,11.29,8.41,8.41,0,0,1-3.83-1.06v.11a8.46,8.46,0,0,0,6.78,8.29,8.39,8.39,0,0,1-3.81.14A8.46,8.46,0,0,0,154,583.5a17,17,0,0,1-10.5,3.62A17.84,17.84,0,0,1,141.45,587Z" transform="translate(-120.85 -532.85)"/></svg>