<svg id="Layer_1" data-name="Layer 1" xmlns="http://www.w3.org/2000/svg" viewBox="0 0 46.53 46.97"><defs><style>.cls-1{fill:#fff;}</style></defs><title>all_picto_purpose</title><path class="cls-1" d="M591.61,407a7.58,7.58,0,1,1,7.58,7.58H599l-1.18,2.86a10.56,10.56,0,1,0-8.93-8.42l2.81-1.16A7.66,7.66,0,0,1,591.61,407Z" transform="translate(-573.02 -386.63)"/><path class="cls-1" d="M599.2,386.63a20.34,20.34,0,0,0-19.51,26.14l2.75-1.14a17.4,17.4,0,1,1,12.66,12.24L594,426.65a20.35,20.35,0,1,0,5.23-40Z" transform="translate(-573.02 -386.63)"/><path class="cls-1" d="M597.62,409a.65.65,0,0,0-.69-.14l-4.37,1.8-2.74,1.13-6.35,2.62-2.74,1.13-5.45,2.25a.63.63,0,0,0,.06,1.2l7.08,2.08-9.22,9.22a.64.64,0,0,0,0,.9h0l2.23,2.23a.66.66,0,0,0,.9,0l9.22-9.22,2.09,7.07a.64.64,0,0,0,.58.46.65.65,0,0,0,.62-.39l2.33-5.66,1.13-2.74,2.61-6.33,1.13-2.74,1.72-4.18A.63.63,0,0,0,597.62,409Z" transform="translate(-573.02 -386.63)"/></svg>