<svg id="Layer_1" data-name="Layer 1" xmlns="http://www.w3.org/2000/svg" viewBox="0 0 32.08 49.5"><defs><style>.cls-1{fill:#fff;}</style></defs><title>all_picto_strategy</title><path class="cls-1" d="M596.24,434.95h0a8.49,8.49,0,0,0,6.89-3.06H589.36A8.48,8.48,0,0,0,596.24,434.95Z" transform="translate(-580.2 -385.45)"/><path class="cls-1" d="M587.37,425.83c0,.32,0,.64.05,1h17.64q0-.47,0-1c0-.05,0-.59,0-1.4H587.37C587.37,425.23,587.37,425.78,587.37,425.83Z" transform="translate(-580.2 -385.45)"/><path class="cls-1" d="M590.76,428.12h-3.17a7.68,7.68,0,0,0,.91,2.22l.13.2h15.23a7.78,7.78,0,0,0,1-2.42H590.76Z" transform="translate(-580.2 -385.45)"/><path class="cls-1" d="M596.24,385.45h0c-8.7,0-16.56,7.33-16,16,.45,7.14,4.62,11.13,5.88,14.54a20.52,20.52,0,0,1,1.26,6.45s0,.28,0,.64h17.74c0-.35,0-.61,0-.64a20.54,20.54,0,0,1,1.26-6.45c1.26-3.41,5.43-7.4,5.88-14.54C612.79,392.77,604.94,385.45,596.24,385.45Zm-.93,26.77a38.76,38.76,0,0,0-.63-6.1h2.87a38.83,38.83,0,0,0-.63,6.1,79.3,79.3,0,0,0,.14,7.93h-1.89A79.23,79.23,0,0,0,595.31,412.22Zm13.89-10.95c-.26,4.16-2,7.11-3.61,9.71a24,24,0,0,0-2.08,4,24.55,24.55,0,0,0-1.28,5.21h-3.63c-.24-3.16-.41-9.69.52-14.06.84,0,1.72-.07,2.45-.15a2.86,2.86,0,0,0,2.65-2.21,3,3,0,0,0-1.23-3.2,2.54,2.54,0,0,0-3.1.48,7.16,7.16,0,0,0-2,3.56H594.3a7.16,7.16,0,0,0-2-3.56,2.54,2.54,0,0,0-3.1-.48,3,3,0,0,0-1.23,3.2,2.86,2.86,0,0,0,2.65,2.21c.73.08,1.6.12,2.45.15.93,4.37.76,10.9.52,14.06h-3.37a24.55,24.55,0,0,0-1.28-5.21,24,24,0,0,0-2.08-4c-1.57-2.6-3.35-5.54-3.61-9.71a11.33,11.33,0,0,1,3.23-8.48,13.2,13.2,0,0,1,19.46,0A11.33,11.33,0,0,1,609.2,401.27Zm-9.68,3.27a5.14,5.14,0,0,1,1.35-2.35,1.65,1.65,0,0,1,1-.45.68.68,0,0,1,.36.1,1.52,1.52,0,0,1,.53,1.55,1.34,1.34,0,0,1-1.32,1C600.84,404.47,600.18,404.51,599.51,404.54Zm-6.8,0c-.67,0-1.32-.07-1.88-.12a1.34,1.34,0,0,1-1.32-1,1.52,1.52,0,0,1,.53-1.55.67.67,0,0,1,.36-.1,1.65,1.65,0,0,1,1,.45A5.14,5.14,0,0,1,592.71,404.54Z" transform="translate(-580.2 -385.45)"/></svg>