<svg id="Layer_1" data-name="Layer 1" xmlns="http://www.w3.org/2000/svg" viewBox="0 0 1079.33 32"><defs><style>.cls-1{fill:#fff;}</style></defs><title>bouton_superjoli</title><path class="cls-1" d="M751.08,172.24a2.83,2.83,0,1,0,2.48,2.8A2.54,2.54,0,0,0,751.08,172.24Z" transform="translate(-42.08 -157.1)"/><path class="cls-1" d="M681.9,172.24a2.84,2.84,0,0,0,0,5.62,2.75,2.75,0,0,0,2.18-1.1v-3.42A2.75,2.75,0,0,0,681.9,172.24Z" transform="translate(-42.08 -157.1)"/><path class="cls-1" d="M726.86,172.06a2.23,2.23,0,0,0-2.36,2.06h4.76A2.21,2.21,0,0,0,726.86,172.06Z" transform="translate(-42.08 -157.1)"/><path class="cls-1" d="M697.54,172.06a2.23,2.23,0,0,0-2.36,2.06h4.76A2.21,2.21,0,0,0,697.54,172.06Z" transform="translate(-42.08 -157.1)"/><path class="cls-1" d="M803.2,172.06a2.23,2.23,0,0,0-2.36,2.06h4.76A2.21,2.21,0,0,0,803.2,172.06Z" transform="translate(-42.08 -157.1)"/><path class="cls-1" d="M259.12,172.24a2.82,2.82,0,0,0-2.18,1.1v3.4a2.86,2.86,0,0,0,2.18,1.12,2.84,2.84,0,0,0,0-5.62Z" transform="translate(-42.08 -157.1)"/><path class="cls-1" d="M766.82,172.24a2.82,2.82,0,0,0-2.18,1.1v3.4a2.86,2.86,0,0,0,2.18,1.12,2.84,2.84,0,0,0,0-5.62Z" transform="translate(-42.08 -157.1)"/><path class="cls-1" d="M276.72,167a6.18,6.18,0,1,0,6.18,6.18A6.21,6.21,0,0,0,276.72,167Zm.1,10.4a4.22,4.22,0,0,1,0-8.44,3.79,3.79,0,0,1,3,1.32l-.62.62a2.93,2.93,0,0,0-2.34-1.14,3.25,3.25,0,0,0-3.24,3.4,3.31,3.31,0,0,0,3.24,3.44,3,3,0,0,0,2.36-1.18l.62.62A3.83,3.83,0,0,1,276.82,177.42Z" transform="translate(-42.08 -157.1)"/><path class="cls-1" d="M483.5,172.24A2.83,2.83,0,1,0,486,175,2.54,2.54,0,0,0,483.5,172.24Z" transform="translate(-42.08 -157.1)"/><path class="cls-1" d="M448.26,172.24a2.82,2.82,0,0,0-2.18,1.1v3.4a2.86,2.86,0,0,0,2.18,1.12,2.84,2.84,0,0,0,0-5.62Z" transform="translate(-42.08 -157.1)"/><path class="cls-1" d="M432.86,172.06a2.23,2.23,0,0,0-2.36,2.06h4.76A2.21,2.21,0,0,0,432.86,172.06Z" transform="translate(-42.08 -157.1)"/><path class="cls-1" d="M387.9,172.24a2.83,2.83,0,1,0,2.48,2.8A2.54,2.54,0,0,0,387.9,172.24Z" transform="translate(-42.08 -157.1)"/><path class="cls-1" d="M310.7,168.85c-1.9,0-2.62,1.9-2.62,4.36s.72,4.38,2.62,4.38,2.62-1.92,2.62-4.38S312.62,168.85,310.7,168.85Z" transform="translate(-42.08 -157.1)"/><path class="cls-1" d="M243.72,172.06a2.23,2.23,0,0,0-2.36,2.06h4.76A2.21,2.21,0,0,0,243.72,172.06Z" transform="translate(-42.08 -157.1)"/><path class="cls-1" d="M586.18,172.24a2.67,2.67,0,0,0,0,5.32,2.88,2.88,0,0,0,2.18-1.1v-3.14A2.86,2.86,0,0,0,586.18,172.24Z" transform="translate(-42.08 -157.1)"/><path class="cls-1" d="M657,172.24a2.84,2.84,0,0,0,0,5.62,2.75,2.75,0,0,0,2.18-1.1v-3.42A2.75,2.75,0,0,0,657,172.24Z" transform="translate(-42.08 -157.1)"/><path class="cls-1" d="M624.08,177c0,.92.82,1.44,1.82,1.44a2.54,2.54,0,0,0,2-.84v-1.2a2.55,2.55,0,0,0-2-.86C624.9,175.5,624.08,176,624.08,177Z" transform="translate(-42.08 -157.1)"/><path class="cls-1" d="M548.44,172.06a2.23,2.23,0,0,0-2.36,2.06h4.76A2.21,2.21,0,0,0,548.44,172.06Z" transform="translate(-42.08 -157.1)"/><path class="cls-1" d="M532.8,172.24a2.84,2.84,0,0,0,0,5.62,2.75,2.75,0,0,0,2.18-1.1v-3.42A2.75,2.75,0,0,0,532.8,172.24Z" transform="translate(-42.08 -157.1)"/><path class="cls-1" d="M177.34,172.24a2.83,2.83,0,1,0,2.48,2.8A2.54,2.54,0,0,0,177.34,172.24Z" transform="translate(-42.08 -157.1)"/><path class="cls-1" d="M123.16,177c0,.92.82,1.44,1.82,1.44a2.54,2.54,0,0,0,2-.84v-1.2a2.55,2.55,0,0,0-2-.86C124,175.5,123.16,176,123.16,177Z" transform="translate(-42.08 -157.1)"/><path class="cls-1" d="M42.08,157.1v32H1121.42v-32Zm69.18,22.78H104V166.53h7c2.54,0,3.84,1.62,3.84,3.4a3,3,0,0,1-2.3,3.06,3.21,3.21,0,0,1,2.56,3.26C115.15,178.28,113.83,179.88,111.26,179.88Zm18.32,0H127v-1a3.94,3.94,0,0,1-3.06,1.26,3.2,3.2,0,0,1-3.34-3.2A3.06,3.06,0,0,1,124,173.8,4,4,0,0,1,127,175v-1.22c0-1-.84-1.62-2.12-1.62a4.06,4.06,0,0,0-2.78,1.14l-1-1.78a6.24,6.24,0,0,1,4.22-1.52c2.22,0,4.24.88,4.24,3.66Zm21,0h-2.56v-6.1c0-.9-.4-1.54-1.44-1.54a2.56,2.56,0,0,0-2,1.12v6.52h-2.56v-6.1c0-.9-.4-1.54-1.44-1.54a2.63,2.63,0,0,0-2,1.12v6.52h-2.54v-9.66h2.54v1.24a4.33,4.33,0,0,1,3.16-1.48,2.55,2.55,0,0,1,2.68,1.74,4.14,4.14,0,0,1,3.32-1.74,2.58,2.58,0,0,1,2.84,2.92Zm12,.24a3.75,3.75,0,0,1-3-1.48v1.24h-2.54V166.53h2.54v4.92a3.67,3.67,0,0,1,3-1.48c2.46,0,4.28,1.92,4.28,5.06S165.1,180.12,162.66,180.12Zm14.68,0a5.07,5.07,0,1,1,5.12-5.08A4.91,4.91,0,0,1,177.34,180.12Zm15.5,0A5.07,5.07,0,1,1,198,175,4.91,4.91,0,0,1,192.84,180.12Zm24.84,0A7.71,7.71,0,0,1,212,178l1.56-2.22a5.86,5.86,0,0,0,4.24,1.82c1.58,0,2.32-.7,2.32-1.48,0-2.32-7.68-.7-7.68-5.72,0-2.22,1.92-4.06,5.06-4.06a7.42,7.42,0,0,1,5.2,1.86l-1.58,2.12a5.73,5.73,0,0,0-3.88-1.46c-1.2,0-1.88.52-1.88,1.32,0,2.1,7.66.68,7.66,5.66C223,178.28,221.26,180.12,217.68,180.12Zm14.14,0a2.41,2.41,0,0,1-2.72-2.66v-5h-1.6v-2.22h1.6v-2.64h2.54v2.64h2v2.22h-2v4.34c0,.62.32,1.08.88,1.08a1.28,1.28,0,0,0,.88-.3l.54,1.94A3.14,3.14,0,0,1,231.82,180.12Zm16.74-4.24h-7.18a2.59,2.59,0,0,0,2.78,2.16,4,4,0,0,0,2.56-.94l1.14,1.68a6,6,0,0,1-4,1.34,5.07,5.07,0,1,1-.16-10.14c2.9,0,4.84,2.16,4.84,5.3Zm11.36,4.24a3.72,3.72,0,0,1-3-1.48v4.92H254.4V170.22h2.54v1.22a3.73,3.73,0,0,1,3-1.46c2.48,0,4.28,1.84,4.28,5.06S262.4,180.12,259.92,180.12Zm16.8,0a6.9,6.9,0,1,1,6.9-6.9A6.92,6.92,0,0,1,276.72,180.1Zm22.76-.22h-10v-2.24c5.46-4,7.06-5.4,7.06-7,0-1.18-1.06-1.74-2.16-1.74a4.77,4.77,0,0,0-3.58,1.54l-1.62-1.88a6.8,6.8,0,0,1,5.14-2.18c2.86,0,5.1,1.6,5.1,4.26,0,2.28-1.88,4.26-5.34,6.78h5.44Zm11.22.24c-3.82,0-5.52-3.46-5.52-6.9s1.7-6.88,5.52-6.88,5.52,3.44,5.52,6.88S314.52,180.12,310.7,180.12Zm17.1-.24H325v-9.68l-2.22,2.26-1.62-1.7,4.2-4.22h2.48Zm15.82-11.36-5,11.36h-3.12L340.32,169H333.6v-2.5h10Zm5.08,11.58a1.62,1.62,0,1,1,1.62-1.62A1.64,1.64,0,0,1,348.7,180.1Zm23.52-2.5a3.61,3.61,0,0,0,3.12-1.94l2.44,1.18a6.11,6.11,0,0,1-5.56,3.28,6.91,6.91,0,1,1,0-13.8,6.06,6.06,0,0,1,5.56,3.26l-2.44,1.2a3.61,3.61,0,0,0-3.12-1.94,4.38,4.38,0,0,0,0,8.76Zm15.68,2.52A5.07,5.07,0,1,1,393,175,4.91,4.91,0,0,1,387.9,180.12Zm20.1-.24h-2.56V174a1.57,1.57,0,0,0-1.78-1.8,2.83,2.83,0,0,0-2.2,1.12v6.52h-2.54v-9.66h2.54v1.24a4.52,4.52,0,0,1,3.38-1.48,2.82,2.82,0,0,1,3.16,3.08Zm11.12-2a2.41,2.41,0,0,0,2-1.06l1.66,1.56a4.5,4.5,0,0,1-3.82,1.76A5.07,5.07,0,1,1,419,170a4.49,4.49,0,0,1,3.82,1.74l-1.66,1.56a2.34,2.34,0,0,0-2-1,2.82,2.82,0,0,0,0,5.62Zm18.58-2h-7.18A2.59,2.59,0,0,0,433.3,178a4,4,0,0,0,2.56-.94l1.14,1.68a6,6,0,0,1-4,1.34,5.07,5.07,0,1,1-.16-10.14c2.9,0,4.84,2.16,4.84,5.3Zm11.36,4.24a3.72,3.72,0,0,1-3-1.48v4.92h-2.54V170.22h2.54v1.22a3.73,3.73,0,0,1,3-1.46c2.48,0,4.28,1.84,4.28,5.06S451.54,180.12,449.06,180.12Zm13.38,0a2.41,2.41,0,0,1-2.72-2.66v-5h-1.6v-2.22h1.6v-2.64h2.54v2.64h2v2.22h-2v4.34c0,.62.32,1.08.88,1.08a1.28,1.28,0,0,0,.88-.3l.54,1.94A3.14,3.14,0,0,1,462.44,180.12Zm10.06-.24H470v-9.66h2.54Zm-1.28-10.7a1.51,1.51,0,0,1-1.5-1.52,1.51,1.51,0,0,1,3,0A1.52,1.52,0,0,1,471.22,169.18Zm12.28,10.94a5.07,5.07,0,1,1,5.12-5.08A4.91,4.91,0,0,1,483.5,180.12Zm20.1-.24H501V174a1.57,1.57,0,0,0-1.78-1.8,2.83,2.83,0,0,0-2.2,1.12v6.52h-2.54v-9.66h2.54v1.24a4.52,4.52,0,0,1,3.38-1.48,2.82,2.82,0,0,1,3.16,3.08Zm7.48,2.74-1.1-.9a3.4,3.4,0,0,0,1.54-1.88,1.34,1.34,0,0,1-1.74-1.38,1.6,1.6,0,0,1,1.58-1.6,1.85,1.85,0,0,1,1.78,2A4.61,4.61,0,0,1,511.08,182.62Zm26.46-2.74H535v-1.24a3.72,3.72,0,0,1-3,1.48c-2.42,0-4.28-1.84-4.28-5.08S529.54,170,532,170a3.66,3.66,0,0,1,3,1.48v-4.92h2.56Zm15.74-4H546.1a2.59,2.59,0,0,0,2.78,2.16,4,4,0,0,0,2.56-.94l1.14,1.68a6,6,0,0,1-4,1.34,5.07,5.07,0,1,1-.16-10.14c2.9,0,4.84,2.16,4.84,5.3Zm9.32,4.24a6.5,6.5,0,0,1-4.32-1.5l1.1-1.84a5.48,5.48,0,0,0,3.34,1.34c1.1,0,1.62-.42,1.62-1,0-1.58-5.72-.28-5.72-4.08,0-1.62,1.4-3,4-3a6.16,6.16,0,0,1,3.88,1.32l-1,1.8a4.16,4.16,0,0,0-2.86-1.12c-.92,0-1.52.4-1.52.94,0,1.42,5.74.22,5.74,4.12C566.8,178.82,565.28,180.12,562.6,180.12Zm12.6-.24h-2.54v-9.66h2.54Zm-1.28-10.7a1.51,1.51,0,0,1-1.5-1.52,1.51,1.51,0,0,1,3,0A1.52,1.52,0,0,1,573.92,169.18Zm17,10.06c0,3.66-2.84,4.56-5.22,4.56a5.89,5.89,0,0,1-4.16-1.44l1.14-1.82a3.92,3.92,0,0,0,3,1.18,2.38,2.38,0,0,0,2.68-2.48v-.94a3.75,3.75,0,0,1-3,1.5c-2.4,0-4.26-1.68-4.26-4.9s1.82-4.92,4.26-4.92a3.7,3.7,0,0,1,3,1.48v-1.24h2.54Zm15.6.64h-2.56V174a1.57,1.57,0,0,0-1.78-1.8,2.83,2.83,0,0,0-2.2,1.12v6.52h-2.54v-9.66H600v1.24a4.52,4.52,0,0,1,3.38-1.48,2.82,2.82,0,0,1,3.16,3.08Zm24,0h-2.56v-1a3.94,3.94,0,0,1-3.06,1.26,3.2,3.2,0,0,1-3.34-3.2,3.06,3.06,0,0,1,3.34-3.12,4,4,0,0,1,3.06,1.18v-1.22c0-1-.84-1.62-2.12-1.62a4.06,4.06,0,0,0-2.78,1.14l-1-1.78a6.24,6.24,0,0,1,4.22-1.52c2.22,0,4.24.88,4.24,3.66Zm15.58,0h-2.56V174a1.57,1.57,0,0,0-1.78-1.8,2.83,2.83,0,0,0-2.2,1.12v6.52H637v-9.66h2.54v1.24a4.52,4.52,0,0,1,3.38-1.48,2.82,2.82,0,0,1,3.16,3.08Zm15.7,0h-2.56v-1.24a3.72,3.72,0,0,1-3,1.48c-2.42,0-4.28-1.84-4.28-5.08s1.82-5.06,4.28-5.06a3.66,3.66,0,0,1,3,1.48v-4.92h2.56Zm24.86,0h-2.56v-1.24a3.72,3.72,0,0,1-3,1.48c-2.42,0-4.28-1.84-4.28-5.08s1.82-5.06,4.28-5.06a3.66,3.66,0,0,1,3,1.48v-4.92h2.56Zm15.74-4H695.2A2.59,2.59,0,0,0,698,178a4,4,0,0,0,2.56-.94l1.14,1.68a6,6,0,0,1-4,1.34,5.07,5.07,0,1,1-.16-10.14c2.9,0,4.84,2.16,4.84,5.3Zm11.08,4h-2.74l-3.88-9.66h2.72l2.52,6.72,2.54-6.72h2.72Zm18.24-4h-7.18A2.59,2.59,0,0,0,727.3,178a4,4,0,0,0,2.56-.94l1.14,1.68a6,6,0,0,1-4,1.34,5.07,5.07,0,1,1-.16-10.14c2.9,0,4.84,2.16,4.84,5.3Zm8.38,4h-2.54V166.53h2.54Zm11,.24A5.07,5.07,0,1,1,756.2,175,4.91,4.91,0,0,1,751.08,180.12Zm16.54,0a3.72,3.72,0,0,1-3-1.48v4.92H762.1V170.22h2.54v1.22a3.73,3.73,0,0,1,3-1.46c2.48,0,4.28,1.84,4.28,5.06S770.1,180.12,767.62,180.12Zm24.68-.24h-2.56v-6.1c0-.9-.4-1.54-1.44-1.54a2.57,2.57,0,0,0-2,1.12v6.52h-2.56v-6.1c0-.9-.4-1.54-1.44-1.54a2.63,2.63,0,0,0-2,1.12v6.52h-2.54v-9.66h2.54v1.24a4.33,4.33,0,0,1,3.16-1.48,2.55,2.55,0,0,1,2.68,1.74,4.14,4.14,0,0,1,3.32-1.74,2.58,2.58,0,0,1,2.84,2.92Zm15.74-4h-7.18a2.59,2.59,0,0,0,2.78,2.16,4,4,0,0,0,2.56-.94l1.14,1.68a6,6,0,0,1-4,1.34A5.07,5.07,0,1,1,803.2,170c2.9,0,4.84,2.16,4.84,5.3Zm14.92,4H820.4V174a1.57,1.57,0,0,0-1.78-1.8,2.83,2.83,0,0,0-2.2,1.12v6.52h-2.54v-9.66h2.54v1.24A4.52,4.52,0,0,1,819.8,170a2.82,2.82,0,0,1,3.16,3.08Zm9.74.24a2.41,2.41,0,0,1-2.72-2.66v-5h-1.6v-2.22H830v-2.64h2.54v2.64h2v2.22h-2v4.34c0,.62.32,1.08.88,1.08a1.28,1.28,0,0,0,.88-.3l.54,1.94A3.14,3.14,0,0,1,832.7,180.12Zm8.82,0a1.62,1.62,0,1,1,1.62-1.62A1.64,1.64,0,0,1,841.52,180.1Zm0-6.78a1.62,1.62,0,1,1,1.62-1.62A1.64,1.64,0,0,1,841.52,173.32Zm21.58,6.8a7.71,7.71,0,0,1-5.68-2.12l1.56-2.22a5.86,5.86,0,0,0,4.24,1.82c1.58,0,2.32-.7,2.32-1.48,0-2.32-7.68-.7-7.68-5.72,0-2.22,1.92-4.06,5.06-4.06a7.42,7.42,0,0,1,5.2,1.86l-1.58,2.12a5.73,5.73,0,0,0-3.88-1.46c-1.2,0-1.88.52-1.88,1.32,0,2.1,7.66.68,7.66,5.66C868.44,178.28,866.68,180.12,863.1,180.12Zm23.28-5.58c0,3.3-2,5.58-6,5.58s-6-2.28-6-5.58v-8h2.88v7.92a3.13,3.13,0,1,0,6.26,0v-7.92h2.9Zm12.88.58h-3.4v4.76H893V166.53h6.24a4.3,4.3,0,1,1,0,8.58ZM919,169h-6.6v2.8h6.46v2.5h-6.46v3H919v2.5h-9.44V166.53H919Zm13.76,10.84-2.62-4.74H928v4.74h-2.84V166.53h6.24a4.17,4.17,0,0,1,4.5,4.3,3.86,3.86,0,0,1-2.94,4l3,5.08Zm16.42-4.38c0,3.14-2,4.62-4.7,4.62a5,5,0,0,1-3.6-1.32l1.24-2.16a3,3,0,0,0,2.12,1,2,2,0,0,0,2.08-2.14v-8.92h2.86Zm13,4.62a6.9,6.9,0,1,1,7-6.9A6.7,6.7,0,0,1,962.1,180.12Zm21.34-.24h-8.5V166.53h2.86v10.84h5.64Zm8.76,0h-2.84V166.53h2.84Zm7.88.22a1.62,1.62,0,1,1,1.62-1.62A1.64,1.64,0,0,1,1000.07,180.1Zm14.38-2.5a3.61,3.61,0,0,0,3.12-1.94l2.44,1.18a6.11,6.11,0,0,1-5.56,3.28,6.91,6.91,0,1,1,0-13.8,6.06,6.06,0,0,1,5.56,3.26l-2.44,1.2a3.61,3.61,0,0,0-3.12-1.94,4.38,4.38,0,0,0,0,8.76Zm17.6,2.52a6.9,6.9,0,1,1,7-6.9A6.7,6.7,0,0,1,1032.05,180.12Zm27.42-.24h-2.86v-9.62l-3.76,9.62h-1.24l-3.76-9.62v9.62H1045V166.53h4l3.24,8.34,3.24-8.34h4Z" transform="translate(-42.08 -157.1)"/><path class="cls-1" d="M112,170.43a1.4,1.4,0,0,0-1.56-1.4h-3.56v2.8h3.56A1.38,1.38,0,0,0,112,170.43Z" transform="translate(-42.08 -157.1)"/><path class="cls-1" d="M962.1,168.84c-2.48,0-4.06,1.88-4.06,4.38s1.58,4.38,4.06,4.38,4-1.9,4-4.38S964.56,168.84,962.1,168.84Z" transform="translate(-42.08 -157.1)"/><path class="cls-1" d="M161.88,172.24a2.84,2.84,0,0,0-2.2,1.12v3.42a2.87,2.87,0,0,0,2.2,1.08c1.46,0,2.44-1.14,2.44-2.82A2.51,2.51,0,0,0,161.88,172.24Z" transform="translate(-42.08 -157.1)"/><path class="cls-1" d="M1032.05,168.84c-2.48,0-4.06,1.88-4.06,4.38s1.58,4.38,4.06,4.38,4-1.9,4-4.38S1034.51,168.84,1032.05,168.84Z" transform="translate(-42.08 -157.1)"/><path class="cls-1" d="M110.54,174.34h-3.68v3h3.68c1.06,0,1.7-.56,1.7-1.52A1.52,1.52,0,0,0,110.54,174.34Z" transform="translate(-42.08 -157.1)"/><path class="cls-1" d="M931,169h-3v3.6h3a1.81,1.81,0,1,0,0-3.6Z" transform="translate(-42.08 -157.1)"/><path class="cls-1" d="M192.84,172.24a2.83,2.83,0,1,0,2.48,2.8A2.54,2.54,0,0,0,192.84,172.24Z" transform="translate(-42.08 -157.1)"/><path class="cls-1" d="M898.86,169h-3v3.58h3a1.8,1.8,0,1,0,0-3.58Z" transform="translate(-42.08 -157.1)"/></svg>