<svg id="Layer_1" data-name="Layer 1" xmlns="http://www.w3.org/2000/svg" viewBox="0 0 861 57"><defs><style>.cls-1{fill:#fff;}</style></defs><title>bouton_purchase</title><path class="cls-1" d="M537.1,257.32c-2.48,0-4.06,1.88-4.06,4.38s1.58,4.38,4.06,4.38,4-1.9,4-4.38S539.56,257.32,537.1,257.32Z" transform="translate(-30.5 -231.55)"/><path class="cls-1" d="M520,262.82h-3.68v3H520c1.06,0,1.7-.56,1.7-1.52A1.52,1.52,0,0,0,520,262.82Z" transform="translate(-30.5 -231.55)"/><polygon class="cls-1" points="308.08 32.05 312.24 32.05 310.16 26.31 308.08 32.05"/><path class="cls-1" d="M521.46,258.92a1.4,1.4,0,0,0-1.56-1.4h-3.56v2.8h3.56A1.38,1.38,0,0,0,521.46,258.92Z" transform="translate(-30.5 -231.55)"/><path class="cls-1" d="M437.3,257.52h-3v3.6h3a1.81,1.81,0,1,0,0-3.6Z" transform="translate(-30.5 -231.55)"/><path class="cls-1" d="M464,262.82H460.3v3H464c1.06,0,1.7-.56,1.7-1.52A1.52,1.52,0,0,0,464,262.82Z" transform="translate(-30.5 -231.55)"/><path class="cls-1" d="M465.42,258.92a1.4,1.4,0,0,0-1.56-1.4H460.3v2.8h3.56A1.38,1.38,0,0,0,465.42,258.92Z" transform="translate(-30.5 -231.55)"/><path class="cls-1" d="M556.4,257.32c-2.48,0-4.06,1.88-4.06,4.38s1.58,4.38,4.06,4.38,4-1.9,4-4.38S558.86,257.32,556.4,257.32Z" transform="translate(-30.5 -231.55)"/><polygon class="cls-1" points="447.66 32.05 451.82 32.05 449.74 26.31 447.66 32.05"/><path class="cls-1" d="M399.82,257.32c-2.48,0-4.06,1.88-4.06,4.38s1.58,4.38,4.06,4.38,4-1.9,4-4.38S402.28,257.32,399.82,257.32Z" transform="translate(-30.5 -231.55)"/><polygon class="cls-1" points="599.68 32.05 603.84 32.05 601.76 26.31 599.68 32.05"/><path class="cls-1" d="M287.76,257.52h-3v3.6h3a1.81,1.81,0,1,0,0-3.6Z" transform="translate(-30.5 -231.55)"/><path class="cls-1" d="M615.72,257.52h-3v3.6h3a1.81,1.81,0,1,0,0-3.6Z" transform="translate(-30.5 -231.55)"/><path class="cls-1" d="M30.5,231.55v57h861v-57ZM253,263.6h-3.4v4.76h-2.84V255H253a4.3,4.3,0,1,1,0,8.58Zm22.3-.58c0,3.3-2,5.58-6,5.58s-6-2.28-6-5.58v-8h2.88v7.92a3.13,3.13,0,1,0,6.26,0V255h2.9Zm14.18,5.34-2.62-4.74h-2.08v4.74h-2.84V255h6.24a4.17,4.17,0,0,1,4.5,4.3,3.86,3.86,0,0,1-2.94,4l3,5.08Zm15.8-2.28a3.61,3.61,0,0,0,3.12-1.94l2.44,1.18a6.11,6.11,0,0,1-5.56,3.28,6.9,6.9,0,1,1,0-13.8,6.06,6.06,0,0,1,5.56,3.26l-2.44,1.2a3.61,3.61,0,0,0-3.12-1.94,4.38,4.38,0,0,0,0,8.76Zm23.26,2.28h-2.86v-5.62h-6.3v5.62h-2.84V255h2.84v5.24h6.3V255h2.86Zm15.84,0-.84-2.26H337.8l-.84,2.26h-3.22L338.88,255h3.56l5.14,13.34Zm13.08.24a7.71,7.71,0,0,1-5.68-2.12l1.56-2.22a5.86,5.86,0,0,0,4.24,1.82c1.58,0,2.32-.7,2.32-1.48,0-2.32-7.68-.7-7.68-5.72,0-2.22,1.92-4.06,5.06-4.06a7.43,7.43,0,0,1,5.2,1.86l-1.58,2.12a5.73,5.73,0,0,0-3.88-1.46c-1.2,0-1.88.52-1.88,1.32,0,2.1,7.66.68,7.66,5.66C362.78,266.76,361,268.6,357.44,268.6Zm20.68-11.08h-6.6v2.8H378v2.5h-6.46v3h6.6v2.5h-9.44V255h9.44Zm21.7,11.08a6.9,6.9,0,1,1,7-6.9A6.7,6.7,0,0,1,399.82,268.6Zm25-5.58c0,3.3-2,5.58-6,5.58s-6-2.28-6-5.58v-8h2.88v7.92a3.13,3.13,0,1,0,6.26,0V255h2.9ZM439,268.36l-2.62-4.74H434.3v4.74h-2.84V255h6.24a4.17,4.17,0,0,1,4.5,4.3,3.86,3.86,0,0,1-2.94,4l3,5.08Zm25.7,0h-7.24V255h7c2.54,0,3.84,1.62,3.84,3.4a3,3,0,0,1-2.3,3.06,3.21,3.21,0,0,1,2.56,3.26C468.58,266.76,467.26,268.36,464.7,268.36Zm19.24,0-.84-2.26h-5.72l-.84,2.26h-3.22L478.46,255H482l5.14,13.34Zm22.92,0H504v-9.62l-3.76,9.62H499l-3.76-9.62v9.62H492.4V255h4l3.24,8.34,3.24-8.34h4Zm13.88,0H513.5V255h7c2.54,0,3.84,1.62,3.84,3.4a3,3,0,0,1-2.3,3.06,3.21,3.21,0,0,1,2.56,3.26C524.62,266.76,523.3,268.36,520.74,268.36Zm16.36.24a6.9,6.9,0,1,1,7-6.9A6.7,6.7,0,0,1,537.1,268.6Zm19.3,0a6.9,6.9,0,1,1,7-6.9A6.7,6.7,0,0,1,556.4,268.6Zm26.86,0a7.71,7.71,0,0,1-5.68-2.12l1.56-2.22a5.86,5.86,0,0,0,4.24,1.82c1.58,0,2.32-.7,2.32-1.48,0-2.32-7.68-.7-7.68-5.72,0-2.22,1.92-4.06,5.06-4.06a7.43,7.43,0,0,1,5.2,1.86l-1.58,2.12a5.73,5.73,0,0,0-3.88-1.46c-1.2,0-1.88.52-1.88,1.32,0,2.1,7.66.68,7.66,5.66C588.6,266.76,586.84,268.6,583.26,268.6Zm20.8-11.08h-3.88v10.84h-2.86V257.52h-3.9V255h10.64Zm13.36,10.84-2.62-4.74h-2.08v4.74h-2.84V255h6.24a4.17,4.17,0,0,1,4.5,4.3,3.86,3.86,0,0,1-2.94,4l3,5.08Zm18.54,0-.84-2.26H629.4l-.84,2.26h-3.22L630.48,255H634l5.14,13.34Zm20.8,0h-3l-2.34-9.16-2.32,9.16h-3L642.24,255h3.18l2.34,9.64L650.3,255h2.22l2.52,9.64,2.34-9.64h3.18Zm13.9.24a7.71,7.71,0,0,1-5.68-2.12l1.56-2.22a5.86,5.86,0,0,0,4.24,1.82c1.58,0,2.32-.7,2.32-1.48,0-2.32-7.68-.7-7.68-5.72,0-2.22,1.92-4.06,5.06-4.06a7.43,7.43,0,0,1,5.2,1.86l-1.58,2.12a5.73,5.73,0,0,0-3.88-1.46c-1.2,0-1.88.52-1.88,1.32,0,2.1,7.66.68,7.66,5.66C676,266.76,674.24,268.6,670.66,268.6Z" transform="translate(-30.5 -231.55)"/><path class="cls-1" d="M252.58,257.52h-3v3.58h3a1.8,1.8,0,1,0,0-3.58Z" transform="translate(-30.5 -231.55)"/><path class="cls-1" d="M252.58,261.1h-3v-3.58h3a1.8,1.8,0,1,1,0,3.58Z" transform="translate(-30.5 -231.55)"/><path class="cls-1" d="M287.76,261.12h-3v-3.6h3a1.81,1.81,0,1,1,0,3.6Z" transform="translate(-30.5 -231.55)"/><path class="cls-1" d="M338.58,263.6l2.08-5.74,2.08,5.74Z" transform="translate(-30.5 -231.55)"/><path class="cls-1" d="M399.82,266.08c-2.48,0-4.06-1.9-4.06-4.38s1.58-4.38,4.06-4.38,4,1.88,4,4.38S402.28,266.08,399.82,266.08Z" transform="translate(-30.5 -231.55)"/><path class="cls-1" d="M437.3,261.12h-3v-3.6h3a1.81,1.81,0,1,1,0,3.6Z" transform="translate(-30.5 -231.55)"/><path class="cls-1" d="M460.3,257.52h3.56a1.4,1.4,0,0,1,1.56,1.4,1.38,1.38,0,0,1-1.56,1.4H460.3Zm3.68,8.34H460.3v-3H464a1.52,1.52,0,0,1,1.7,1.52C465.68,265.3,465,265.86,464,265.86Z" transform="translate(-30.5 -231.55)"/><path class="cls-1" d="M478.16,263.6l2.08-5.74,2.08,5.74Z" transform="translate(-30.5 -231.55)"/><path class="cls-1" d="M516.34,257.52h3.56a1.4,1.4,0,0,1,1.56,1.4,1.38,1.38,0,0,1-1.56,1.4h-3.56Zm3.68,8.34h-3.68v-3H520a1.52,1.52,0,0,1,1.7,1.52C521.72,265.3,521.08,265.86,520,265.86Z" transform="translate(-30.5 -231.55)"/><path class="cls-1" d="M537.1,266.08c-2.48,0-4.06-1.9-4.06-4.38s1.58-4.38,4.06-4.38,4,1.88,4,4.38S539.56,266.08,537.1,266.08Z" transform="translate(-30.5 -231.55)"/><path class="cls-1" d="M556.4,266.08c-2.48,0-4.06-1.9-4.06-4.38s1.58-4.38,4.06-4.38,4,1.88,4,4.38S558.86,266.08,556.4,266.08Z" transform="translate(-30.5 -231.55)"/><path class="cls-1" d="M615.72,261.12h-3v-3.6h3a1.81,1.81,0,1,1,0,3.6Z" transform="translate(-30.5 -231.55)"/><path class="cls-1" d="M630.18,263.6l2.08-5.74,2.08,5.74Z" transform="translate(-30.5 -231.55)"/></svg>