<svg id="Layer_1" data-name="Layer 1" xmlns="http://www.w3.org/2000/svg" viewBox="0 0 212 57"><defs><style>.cls-1{fill:#fff;}</style></defs><title>bouton_suscribe</title><path class="cls-1" d="M335.67,171.46a1.4,1.4,0,0,0-1.56-1.4h-3.56v2.8h3.56A1.38,1.38,0,0,0,335.67,171.46Z" transform="translate(-179 -144.09)"/><path class="cls-1" d="M256.89,175.36h-3.68v3h3.68c1.06,0,1.7-.56,1.7-1.52A1.52,1.52,0,0,0,256.89,175.36Z" transform="translate(-179 -144.09)"/><path class="cls-1" d="M258.33,171.46a1.4,1.4,0,0,0-1.56-1.4h-3.56v2.8h3.56A1.38,1.38,0,0,0,258.33,171.46Z" transform="translate(-179 -144.09)"/><path class="cls-1" d="M307.21,170.06h-3v3.6h3a1.81,1.81,0,1,0,0-3.6Z" transform="translate(-179 -144.09)"/><path class="cls-1" d="M334.23,175.36h-3.68v3h3.68c1.06,0,1.7-.56,1.7-1.52A1.52,1.52,0,0,0,334.23,175.36Z" transform="translate(-179 -144.09)"/><path class="cls-1" d="M179,144.09v57H391v-57Zm41.45,37.05a7.7,7.7,0,0,1-5.68-2.12l1.56-2.22a5.86,5.86,0,0,0,4.24,1.82c1.58,0,2.32-.7,2.32-1.48,0-2.32-7.68-.7-7.68-5.72,0-2.22,1.92-4.06,5.06-4.06a7.42,7.42,0,0,1,5.2,1.86l-1.58,2.12a5.73,5.73,0,0,0-3.88-1.46c-1.2,0-1.88.52-1.88,1.32,0,2.1,7.66.68,7.66,5.66C225.79,179.3,224,181.14,220.45,181.14Zm23.28-5.58c0,3.3-2,5.58-6,5.58s-6-2.28-6-5.58v-8h2.88v7.92a3.13,3.13,0,1,0,6.26,0v-7.92h2.9Zm13.88,5.34h-7.24V167.56h7c2.54,0,3.84,1.62,3.84,3.4a3,3,0,0,1-2.3,3.06,3.21,3.21,0,0,1,2.56,3.26C261.49,179.3,260.17,180.9,257.61,180.9Zm14.78.24a7.7,7.7,0,0,1-5.68-2.12l1.56-2.22a5.86,5.86,0,0,0,4.24,1.82c1.58,0,2.32-.7,2.32-1.48,0-2.32-7.68-.7-7.68-5.72,0-2.22,1.92-4.06,5.06-4.06a7.42,7.42,0,0,1,5.2,1.86l-1.58,2.12a5.73,5.73,0,0,0-3.88-1.46c-1.2,0-1.88.52-1.88,1.32,0,2.1,7.66.68,7.66,5.66C277.73,179.3,276,181.14,272.39,181.14Zm17.72-2.52a3.61,3.61,0,0,0,3.12-1.94l2.44,1.18a6.11,6.11,0,0,1-5.56,3.28,6.9,6.9,0,1,1,0-13.8,6.06,6.06,0,0,1,5.56,3.26l-2.44,1.2a3.61,3.61,0,0,0-3.12-1.94,4.39,4.39,0,0,0,0,8.76Zm18.8,2.28-2.62-4.74h-2.08v4.74h-2.84V167.56h6.24a4.17,4.17,0,0,1,4.5,4.3,3.86,3.86,0,0,1-2.94,4l3,5.08Zm12.16,0h-2.84V167.56h2.84Zm13.88,0h-7.24V167.56h7c2.54,0,3.84,1.62,3.84,3.4a3,3,0,0,1-2.3,3.06,3.21,3.21,0,0,1,2.56,3.26C338.83,179.3,337.51,180.9,335,180.9Zm19.46-10.84h-6.6v2.8h6.46v2.5h-6.46v3h6.6v2.5H345V167.56h9.44Z" transform="translate(-179 -144.09)"/><path class="cls-1" d="M307.21,173.66h-3v-3.6h3a1.81,1.81,0,1,1,0,3.6Z" transform="translate(-179 -144.09)"/></svg>