<svg id="Layer_1" data-name="Layer 1" xmlns="http://www.w3.org/2000/svg" viewBox="0 0 82.41 82.41"><defs><style>.cls-1{fill:#fff;}</style></defs><title>picto_instagram</title><circle class="cls-1" cx="41.2" cy="41.2" r="15.27"/><path class="cls-1" d="M300.76,146.79H269.25a10.63,10.63,0,0,0-10.6,10.59V188.9a10.62,10.62,0,0,0,10.6,10.6h31.51a10.61,10.61,0,0,0,10.59-10.6V157.39A10.62,10.62,0,0,0,300.76,146.79ZM285,192.42a19.27,19.27,0,1,1,19.27-19.27A19.27,19.27,0,0,1,285,192.42Zm18.91-35a3.1,3.1,0,1,1,3.1-3.1A3.09,3.09,0,0,1,303.91,157.45Z" transform="translate(-243.8 -131.94)"/><path class="cls-1" d="M243.8,131.94v82.41H326.2V131.94Zm71.08,57A14.15,14.15,0,0,1,300.76,203H269.25a14.16,14.16,0,0,1-14.13-14.13V157.39a14.17,14.17,0,0,1,14.13-14.13h31.51a14.16,14.16,0,0,1,14.13,14.13Z" transform="translate(-243.8 -131.94)"/></svg>